<?xml version="1.0" encoding="UTF-8"?>
<svg id="Layer_2" data-name="Layer 2" xmlns="http://www.w3.org/2000/svg" xmlns:xlink="http://www.w3.org/1999/xlink" viewBox="0 0 1127.06 486.76">
  <defs>
    <style>
      .cls-1 {
        fill: url(#linear-gradient-38);
      }

      .cls-1, .cls-2, .cls-3, .cls-4, .cls-5, .cls-6, .cls-7, .cls-8, .cls-9, .cls-10, .cls-11, .cls-12, .cls-13, .cls-14, .cls-15, .cls-16, .cls-17, .cls-18, .cls-19, .cls-20, .cls-21, .cls-22, .cls-23, .cls-24, .cls-25, .cls-26, .cls-27, .cls-28, .cls-29, .cls-30, .cls-31, .cls-32, .cls-33, .cls-34, .cls-35, .cls-36, .cls-37, .cls-38, .cls-39, .cls-40, .cls-41, .cls-42, .cls-43, .cls-44, .cls-45, .cls-46, .cls-47, .cls-48, .cls-49, .cls-50, .cls-51, .cls-52, .cls-53, .cls-54, .cls-55, .cls-56, .cls-57, .cls-58, .cls-59, .cls-60, .cls-61, .cls-62, .cls-63, .cls-64, .cls-65, .cls-66, .cls-67, .cls-68, .cls-69, .cls-70, .cls-71, .cls-72, .cls-73, .cls-74, .cls-75, .cls-76, .cls-77, .cls-78, .cls-79, .cls-80, .cls-81, .cls-82, .cls-83, .cls-84 {
        stroke-width: 0px;
      }

      .cls-2 {
        fill: url(#linear-gradient-12);
      }

      .cls-3 {
        fill: url(#linear-gradient-17);
      }

      .cls-4 {
        fill: url(#linear-gradient-19);
      }

      .cls-5 {
        fill: url(#linear-gradient-33);
      }

      .cls-6 {
        fill: url(#linear-gradient);
      }

      .cls-7 {
        fill: url(#linear-gradient-62);
      }

      .cls-8 {
        fill: url(#linear-gradient-67);
      }

      .cls-9 {
        fill: url(#linear-gradient-57);
      }

      .cls-10 {
        fill: #043a5a;
      }

      .cls-11 {
        fill: url(#linear-gradient-21);
      }

      .cls-12 {
        fill: url(#linear-gradient-6);
      }

      .cls-85 {
        stroke: #15bdb4;
        stroke-width: 9px;
      }

      .cls-85, .cls-21 {
        stroke-linecap: round;
        stroke-linejoin: round;
      }

      .cls-85, .cls-21, .cls-22 {
        fill: none;
      }

      .cls-13 {
        fill: #1cdfbb;
      }

      .cls-14 {
        fill: #15bdb4;
      }

      .cls-15 {
        fill: url(#linear-gradient-42);
      }

      .cls-16 {
        fill: #05253f;
      }

      .cls-17 {
        fill: url(#linear-gradient-15);
      }

      .cls-18 {
        fill: url(#linear-gradient-11);
      }

      .cls-19 {
        fill: #007496;
      }

      .cls-20 {
        fill: url(#linear-gradient-5);
      }

      .cls-21 {
        stroke: #fff;
      }

      .cls-23 {
        fill: url(#linear-gradient-31);
      }

      .cls-24 {
        fill: url(#linear-gradient-71);
      }

      .cls-25 {
        fill: url(#linear-gradient-58);
      }

      .cls-26 {
        fill: url(#linear-gradient-63);
      }

      .cls-27 {
        fill: url(#linear-gradient-34);
      }

      .cls-28 {
        fill: url(#linear-gradient-41);
      }

      .cls-29 {
        fill: url(#linear-gradient-40);
      }

      .cls-30 {
        fill: url(#linear-gradient-66);
      }

      .cls-31 {
        fill: url(#linear-gradient-13);
      }

      .cls-32 {
        fill: url(#linear-gradient-23);
      }

      .cls-33 {
        fill: #037d9f;
      }

      .cls-34 {
        fill: url(#linear-gradient-25);
      }

      .cls-35 {
        fill: url(#linear-gradient-43);
      }

      .cls-36 {
        fill: url(#linear-gradient-16);
      }

      .cls-37 {
        fill: url(#linear-gradient-22);
      }

      .cls-38 {
        fill: url(#linear-gradient-54);
      }

      .cls-39 {
        fill: url(#linear-gradient-55);
      }

      .cls-40 {
        fill: #fff;
      }

      .cls-41 {
        fill: url(#linear-gradient-35);
      }

      .cls-42 {
        fill: url(#linear-gradient-50);
      }

      .cls-43 {
        fill: url(#linear-gradient-32);
      }

      .cls-44 {
        fill: url(#linear-gradient-60);
      }

      .cls-45 {
        fill: url(#linear-gradient-59);
      }

      .cls-46 {
        fill: url(#linear-gradient-20);
      }

      .cls-47 {
        fill: url(#linear-gradient-14);
      }

      .cls-48 {
        fill: url(#linear-gradient-2);
      }

      .cls-49 {
        fill: url(#linear-gradient-52);
      }

      .cls-50 {
        fill: url(#linear-gradient-45);
      }

      .cls-51 {
        fill: url(#linear-gradient-7);
      }

      .cls-52 {
        fill: url(#linear-gradient-39);
      }

      .cls-53 {
        fill: url(#linear-gradient-3);
      }

      .cls-54 {
        fill: url(#linear-gradient-69);
      }

      .cls-55 {
        fill: url(#linear-gradient-9);
      }

      .cls-56 {
        fill: url(#linear-gradient-27);
      }

      .cls-57 {
        fill: url(#linear-gradient-53);
      }

      .cls-58 {
        fill: url(#linear-gradient-65);
      }

      .cls-59 {
        fill: url(#linear-gradient-36);
      }

      .cls-60 {
        fill: url(#linear-gradient-48);
      }

      .cls-61 {
        fill: url(#linear-gradient-49);
      }

      .cls-62 {
        fill: url(#linear-gradient-8);
      }

      .cls-63 {
        fill: url(#linear-gradient-47);
      }

      .cls-64 {
        fill: #0a263e;
      }

      .cls-65 {
        fill: url(#linear-gradient-24);
      }

      .cls-66 {
        fill: url(#linear-gradient-26);
      }

      .cls-67 {
        fill: url(#linear-gradient-61);
      }

      .cls-68 {
        fill: url(#linear-gradient-18);
      }

      .cls-69 {
        fill: url(#linear-gradient-51);
      }

      .cls-70 {
        fill: url(#linear-gradient-30);
      }

      .cls-71 {
        fill: url(#linear-gradient-44);
      }

      .cls-72 {
        fill: url(#linear-gradient-68);
      }

      .cls-73 {
        fill: url(#linear-gradient-72);
      }

      .cls-74 {
        fill: url(#linear-gradient-29);
      }

      .cls-75 {
        fill: url(#linear-gradient-46);
      }

      .cls-76 {
        fill: url(#linear-gradient-64);
      }

      .cls-77 {
        fill: url(#linear-gradient-28);
      }

      .cls-78 {
        fill: url(#linear-gradient-56);
      }

      .cls-79 {
        fill: url(#linear-gradient-10);
      }

      .cls-80 {
        fill: #054365;
      }

      .cls-81 {
        fill: url(#linear-gradient-70);
      }

      .cls-82 {
        fill: #0eadae;
      }

      .cls-83 {
        fill: url(#linear-gradient-4);
      }

      .cls-84 {
        fill: url(#linear-gradient-37);
      }
    </style>
    <linearGradient id="linear-gradient" x1="-47.28" y1="626.05" x2="-46.58" y2="626.05" gradientTransform="translate(-1345 19876.07) rotate(-180) scale(31.6)" gradientUnits="userSpaceOnUse">
      <stop offset="0" stop-color="#1cdfbb"/>
      <stop offset=".2" stop-color="#1fdfbb"/>
      <stop offset=".38" stop-color="#2adfbd"/>
      <stop offset=".55" stop-color="#3cdfc0"/>
      <stop offset=".72" stop-color="#56dfc5"/>
      <stop offset=".88" stop-color="#77dfcb"/>
      <stop offset="1" stop-color="#95dfd1"/>
    </linearGradient>
    <linearGradient id="linear-gradient-2" x1="-122.25" y1="576.28" x2="-121.56" y2="576.28" gradientTransform="translate(-26243.39 -5498.77) rotate(-90) scale(45.79)" xlink:href="#linear-gradient"/>
    <linearGradient id="linear-gradient-3" x1="-47.27" y1="625.99" x2="-46.58" y2="625.99" gradientTransform="translate(-1344.32 19835.2) rotate(-180) scale(31.6)" xlink:href="#linear-gradient"/>
    <linearGradient id="linear-gradient-4" x1="-47.27" y1="625.86" x2="-46.58" y2="625.86" gradientTransform="translate(-1344.32 19835.2) rotate(-180) scale(31.6)" xlink:href="#linear-gradient"/>
    <linearGradient id="linear-gradient-5" x1="-196.16" y1="628.78" x2="-195.47" y2="628.78" gradientTransform="translate(6348.19 -19814.88) scale(31.6)" gradientUnits="userSpaceOnUse">
      <stop offset="0" stop-color="#097ea4"/>
      <stop offset=".31" stop-color="#07769b"/>
      <stop offset=".81" stop-color="#026283"/>
      <stop offset="1" stop-color="#005978"/>
    </linearGradient>
    <linearGradient id="linear-gradient-6" x1="-196.16" y1="628.91" x2="-195.47" y2="628.91" xlink:href="#linear-gradient-5"/>
    <linearGradient id="linear-gradient-7" x1="-122.32" y1="575.67" x2="-121.63" y2="575.67" gradientTransform="translate(-26170.51 -5508.51) rotate(-90) scale(45.78)" xlink:href="#linear-gradient"/>
    <linearGradient id="linear-gradient-8" x1="-122.32" y1="575.52" x2="-121.63" y2="575.52" gradientTransform="translate(-26170.51 -5508.51) rotate(-90) scale(45.78)" xlink:href="#linear-gradient"/>
    <linearGradient id="linear-gradient-9" x1="-145.1" y1="627.69" x2="-144.4" y2="627.69" gradientTransform="translate(14749.24 -63073.32) scale(100.62)" xlink:href="#linear-gradient-5"/>
    <linearGradient id="linear-gradient-10" x1="-145.1" y1="627.74" x2="-144.4" y2="627.74" gradientTransform="translate(14749.24 -63073.32) scale(100.62)" xlink:href="#linear-gradient-5"/>
    <linearGradient id="linear-gradient-11" x1="-159.14" y1="627.62" x2="-158.45" y2="627.62" gradientTransform="translate(10029.24 -39014.29) scale(62.35)" xlink:href="#linear-gradient-5"/>
    <linearGradient id="linear-gradient-12" x1="-159.14" y1="627.64" x2="-158.45" y2="627.64" gradientTransform="translate(10029.24 -39014.29) scale(62.35)" xlink:href="#linear-gradient-5"/>
    <linearGradient id="linear-gradient-13" x1="-47.28" y1="625.93" x2="-46.58" y2="625.93" xlink:href="#linear-gradient"/>
    <linearGradient id="linear-gradient-14" x1="-122.25" y1="576.33" x2="-121.56" y2="576.33" gradientTransform="translate(-26243.39 -5498.77) rotate(-90) scale(45.79)" xlink:href="#linear-gradient"/>
    <linearGradient id="linear-gradient-15" x1="-159.14" y1="627.24" x2="-158.45" y2="627.24" gradientTransform="translate(10029.24 -39014.29) scale(62.35)" xlink:href="#linear-gradient-5"/>
    <linearGradient id="linear-gradient-16" x1="-83.46" y1="627.14" x2="-82.76" y2="627.14" gradientTransform="translate(-4979.87 38989.03) rotate(-180) scale(61.98)" xlink:href="#linear-gradient-5"/>
    <linearGradient id="linear-gradient-17" x1="-83.46" y1="627.13" x2="-82.76" y2="627.13" gradientTransform="translate(-4979.87 38989.03) rotate(-180) scale(61.98)" xlink:href="#linear-gradient-5"/>
    <linearGradient id="linear-gradient-18" x1="-122.33" y1="576.3" x2="-121.63" y2="576.3" gradientTransform="translate(-26252.31 -5504.97) rotate(-90) scale(45.75)" xlink:href="#linear-gradient"/>
    <linearGradient id="linear-gradient-19" x1="-122.33" y1="576.44" x2="-121.63" y2="576.44" gradientTransform="translate(-26252.31 -5504.97) rotate(-90) scale(45.75)" xlink:href="#linear-gradient"/>
    <linearGradient id="linear-gradient-20" x1="-47.28" y1="626.52" x2="-46.58" y2="626.52" xlink:href="#linear-gradient"/>
    <linearGradient id="linear-gradient-21" x1="-122.25" y1="576.05" x2="-121.56" y2="576.05" gradientTransform="translate(-26243.39 -5498.77) rotate(-90) scale(45.79)" xlink:href="#linear-gradient"/>
    <linearGradient id="linear-gradient-22" x1="-122.33" y1="576.73" x2="-121.63" y2="576.73" gradientTransform="translate(-26252.31 -5504.97) rotate(-90) scale(45.75)" xlink:href="#linear-gradient"/>
    <linearGradient id="linear-gradient-23" x1="-144.89" y1="627.69" x2="-144.19" y2="627.69" gradientTransform="translate(14598.86 -62814.96) scale(100.21)" xlink:href="#linear-gradient-5"/>
    <linearGradient id="linear-gradient-24" x1="-144.89" y1="627.76" x2="-144.19" y2="627.76" gradientTransform="translate(14598.86 -62814.96) scale(100.21)" xlink:href="#linear-gradient-5"/>
    <linearGradient id="linear-gradient-25" x1="-144.89" y1="627.75" x2="-144.19" y2="627.75" gradientTransform="translate(14598.86 -62814.96) scale(100.21)" xlink:href="#linear-gradient-5"/>
    <linearGradient id="linear-gradient-26" x1="-47.28" y1="626.11" x2="-46.58" y2="626.11" xlink:href="#linear-gradient"/>
    <linearGradient id="linear-gradient-27" x1="-122.25" y1="576.25" x2="-121.56" y2="576.25" gradientTransform="translate(-26243.39 -5498.77) rotate(-90) scale(45.79)" xlink:href="#linear-gradient"/>
    <linearGradient id="linear-gradient-28" x1="-144.89" y1="627.76" x2="-144.19" y2="627.76" gradientTransform="translate(14598.86 -62814.96) scale(100.21)" xlink:href="#linear-gradient-5"/>
    <linearGradient id="linear-gradient-29" x1="-144.89" y1="627.6" x2="-144.19" y2="627.6" gradientTransform="translate(14598.84 -62789.88) scale(100.21)" xlink:href="#linear-gradient-5"/>
    <linearGradient id="linear-gradient-30" x1="-144.89" y1="627.63" x2="-144.19" y2="627.63" gradientTransform="translate(14598.84 -62797.07) scale(100.21)" xlink:href="#linear-gradient-5"/>
    <linearGradient id="linear-gradient-31" x1="-144.89" y1="627.63" x2="-144.19" y2="627.63" gradientTransform="translate(14598.84 -62797.07) scale(100.21)" xlink:href="#linear-gradient-5"/>
    <linearGradient id="linear-gradient-32" x1="-120.3" y1="678.32" x2="-119.6" y2="678.32" gradientTransform="translate(31960.67 -5320.5) rotate(-90) scale(46.79 -46.79)" gradientUnits="userSpaceOnUse">
      <stop offset="0" stop-color="#097ea4"/>
      <stop offset=".03" stop-color="#07789d"/>
      <stop offset=".14" stop-color="#046a8c"/>
      <stop offset=".28" stop-color="#016080"/>
      <stop offset=".47" stop-color="#005a79"/>
      <stop offset="1" stop-color="#005978"/>
    </linearGradient>
    <linearGradient id="linear-gradient-33" x1="-142.75" y1="628" x2="-142.06" y2="628" gradientTransform="translate(16326.02 71243.9) scale(112.94 -112.94)" xlink:href="#linear-gradient-32"/>
    <linearGradient id="linear-gradient-34" x1="-122" y1="631.16" x2="-120.66" y2="631.16" gradientTransform="translate(-1338.65 -9198.18) rotate(-180) scale(15.16 -15.16)" gradientUnits="userSpaceOnUse">
      <stop offset="0" stop-color="#1cdfbb"/>
      <stop offset=".2" stop-color="#1fdfbb"/>
      <stop offset=".38" stop-color="#2adfbd"/>
      <stop offset=".55" stop-color="#3cdfc0"/>
      <stop offset=".72" stop-color="#56dfc5"/>
      <stop offset=".88" stop-color="#77dfcb"/>
      <stop offset="1" stop-color="#95dfd1"/>
    </linearGradient>
    <linearGradient id="linear-gradient-35" x1="-124.4" y1="627.23" x2="-123.05" y2="627.23" gradientTransform="translate(14290.68 -2354.7) rotate(-90) scale(21.97 -21.97)" xlink:href="#linear-gradient-34"/>
    <linearGradient id="linear-gradient-36" x1="-122.01" y1="630.56" x2="-120.67" y2="630.56" gradientTransform="translate(-1338.34 -9224.99) rotate(-180) scale(15.16 -15.16)" xlink:href="#linear-gradient-34"/>
    <linearGradient id="linear-gradient-37" x1="-123.14" y1="657.98" x2="-121.8" y2="657.98" gradientTransform="translate(305.56 -716.72) rotate(-180) scale(1.61 -1.61)" xlink:href="#linear-gradient-34"/>
    <linearGradient id="linear-gradient-38" x1="-122.01" y1="630.63" x2="-120.67" y2="630.63" gradientTransform="translate(-1338.34 -9222.13) rotate(-180) scale(15.16 -15.16)" xlink:href="#linear-gradient-34"/>
    <linearGradient id="linear-gradient-39" x1="-121.43" y1="624.2" x2="-120.09" y2="624.2" gradientTransform="translate(2353.26 9802.89) scale(15.16 -15.16)" gradientUnits="userSpaceOnUse">
      <stop offset="0" stop-color="#097ea4"/>
      <stop offset=".31" stop-color="#07769b"/>
      <stop offset=".81" stop-color="#026283"/>
      <stop offset="1" stop-color="#005978"/>
    </linearGradient>
    <linearGradient id="linear-gradient-40" x1="-117.89" y1="598.6" x2="-116.55" y2="598.6" gradientTransform="translate(721.71 1363.97) scale(1.71 -1.71)" xlink:href="#linear-gradient-39"/>
    <linearGradient id="linear-gradient-41" y1="624.14" x2="-120.09" y2="624.14" gradientTransform="translate(2353.26 9805.72) scale(15.16 -15.16)" xlink:href="#linear-gradient-39"/>
    <linearGradient id="linear-gradient-42" x1="-124.31" y1="626.81" x2="-122.97" y2="626.81" gradientTransform="translate(14315.31 -2359.38) rotate(-90) scale(21.97 -21.97)" xlink:href="#linear-gradient-34"/>
    <linearGradient id="linear-gradient-43" x1="-139.33" y1="623.71" x2="-137.99" y2="623.71" gradientTransform="translate(2410.32 -62.84) rotate(-90) scale(3 -3)" xlink:href="#linear-gradient-34"/>
    <linearGradient id="linear-gradient-44" x1="-124.31" y1="626.88" x2="-122.97" y2="626.88" gradientTransform="translate(14310.6 -2359.38) rotate(-90) scale(21.97 -21.97)" xlink:href="#linear-gradient-34"/>
    <linearGradient id="linear-gradient-45" x1="-121.63" y1="626.24" x2="-120.29" y2="626.24" gradientTransform="translate(6384.86 30604.07) scale(48.29 -48.29)" xlink:href="#linear-gradient-39"/>
    <linearGradient id="linear-gradient-46" x1="-119.11" y1="614.5" x2="-117.76" y2="614.5" gradientTransform="translate(1063.5 3072.92) scale(4.4 -4.4)" xlink:href="#linear-gradient-39"/>
    <linearGradient id="linear-gradient-47" x1="-121.63" y1="626.21" x2="-120.29" y2="626.21" gradientTransform="translate(6384.86 30607.9) scale(48.29 -48.29)" xlink:href="#linear-gradient-39"/>
    <linearGradient id="linear-gradient-48" x1="-121.91" y1="625.25" x2="-120.57" y2="625.25" gradientTransform="translate(4119.77 19108.35) scale(29.92 -29.92)" xlink:href="#linear-gradient-39"/>
    <linearGradient id="linear-gradient-49" x1="-121.31" y1="606.26" x2="-119.97" y2="606.26" gradientTransform="translate(867.64 2239.9) scale(3.04 -3.04)" xlink:href="#linear-gradient-39"/>
    <linearGradient id="linear-gradient-50" x1="-121.91" y1="625.24" x2="-120.57" y2="625.24" gradientTransform="translate(4119.77 19109.01) scale(29.92 -29.92)" xlink:href="#linear-gradient-39"/>
    <linearGradient id="linear-gradient-51" x1="-122" y1="631.22" x2="-120.66" y2="631.22" gradientTransform="translate(-1338.65 -9195.58) rotate(-180) scale(15.16 -15.16)" xlink:href="#linear-gradient-34"/>
    <linearGradient id="linear-gradient-52" x1="-124.4" y1="627.2" x2="-123.05" y2="627.2" gradientTransform="translate(14292.47 -2354.7) rotate(-90) scale(21.97 -21.97)" xlink:href="#linear-gradient-34"/>
    <linearGradient id="linear-gradient-53" x1="-121.91" y1="625.44" x2="-120.57" y2="625.44" gradientTransform="translate(4119.77 19091.81) scale(29.92 -29.92)" xlink:href="#linear-gradient-39"/>
    <linearGradient id="linear-gradient-54" x1="-122.21" y1="629.53" x2="-120.87" y2="629.53" gradientTransform="translate(-3083.01 -18324.95) rotate(-180) scale(29.74 -29.74)" xlink:href="#linear-gradient-39"/>
    <linearGradient id="linear-gradient-55" x1="-124.54" y1="651.66" x2="-123.2" y2="651.66" gradientTransform="translate(195.08 -1320.41) rotate(-180) scale(2.64 -2.64)" xlink:href="#linear-gradient-39"/>
    <linearGradient id="linear-gradient-56" x1="-122.21" y1="629.54" x2="-120.87" y2="629.54" gradientTransform="translate(-3083.01 -18324.4) rotate(-180) scale(29.74 -29.74)" xlink:href="#linear-gradient-39"/>
    <linearGradient id="linear-gradient-57" x1="-124.32" y1="627.55" x2="-122.97" y2="627.55" gradientTransform="translate(14258.44 -2357.68) rotate(-90) scale(21.96 -21.96)" xlink:href="#linear-gradient-34"/>
    <linearGradient id="linear-gradient-58" x1="-139.58" y1="628.12" x2="-138.24" y2="628.12" gradientTransform="translate(2345.02 -57.68) rotate(-90) scale(2.96 -2.96)" xlink:href="#linear-gradient-34"/>
    <linearGradient id="linear-gradient-59" x1="-124.32" y1="627.48" x2="-122.97" y2="627.48" gradientTransform="translate(14263.12 -2357.68) rotate(-90) scale(21.96 -21.96)" xlink:href="#linear-gradient-34"/>
    <linearGradient id="linear-gradient-60" x1="-122" y1="630.93" x2="-120.66" y2="630.93" gradientTransform="translate(-1338.65 -9208.39) rotate(-180) scale(15.16 -15.16)" xlink:href="#linear-gradient-34"/>
    <linearGradient id="linear-gradient-61" x1="-124.4" y1="627.34" x2="-123.05" y2="627.34" gradientTransform="translate(14283.65 -2354.7) rotate(-90) scale(21.97 -21.97)" xlink:href="#linear-gradient-34"/>
    <linearGradient id="linear-gradient-62" x1="-124.32" y1="627.34" x2="-122.97" y2="627.34" gradientTransform="translate(14272.13 -2357.68) rotate(-90) scale(21.96 -21.96)" xlink:href="#linear-gradient-34"/>
    <linearGradient id="linear-gradient-63" x1="-121.97" y1="626.23" x2="-120.63" y2="626.23" gradientTransform="translate(6312.71 30480.08) scale(48.09 -48.09)" xlink:href="#linear-gradient-39"/>
    <linearGradient id="linear-gradient-64" x1="-122.63" y1="614.71" x2="-121.29" y2="614.71" gradientTransform="translate(1026.77 3118.63) scale(4.47 -4.47)" xlink:href="#linear-gradient-39"/>
    <linearGradient id="linear-gradient-65" x1="-121.97" y1="626.2" x2="-120.63" y2="626.2" gradientTransform="translate(6312.71 30484.6) scale(48.09 -48.09)" xlink:href="#linear-gradient-39"/>
    <linearGradient id="linear-gradient-66" x1="-121.97" y1="626.2" x2="-120.63" y2="626.2" gradientTransform="translate(6312.71 30483.94) scale(48.09 -48.09)" xlink:href="#linear-gradient-39"/>
    <linearGradient id="linear-gradient-67" x1="-122" y1="631.13" x2="-120.66" y2="631.13" gradientTransform="translate(-1338.65 -9199.55) rotate(-180) scale(15.16 -15.16)" xlink:href="#linear-gradient-34"/>
    <linearGradient id="linear-gradient-68" x1="-124.4" y1="627.25" x2="-123.05" y2="627.25" gradientTransform="translate(14289.73 -2354.7) rotate(-90) scale(21.97 -21.97)" xlink:href="#linear-gradient-34"/>
    <linearGradient id="linear-gradient-69" x1="-121.97" y1="626.2" x2="-120.63" y2="626.2" gradientTransform="translate(6312.71 30484.6) scale(48.09 -48.09)" xlink:href="#linear-gradient-39"/>
    <linearGradient id="linear-gradient-70" x1="-121.97" y1="626.13" x2="-120.63" y2="626.13" gradientTransform="translate(6312.69 30495.29) scale(48.09 -48.09)" xlink:href="#linear-gradient-39"/>
    <linearGradient id="linear-gradient-71" x1="-121.97" y1="626.16" x2="-120.63" y2="626.16" gradientTransform="translate(6312.69 30491.84) scale(48.09 -48.09)" xlink:href="#linear-gradient-39"/>
    <linearGradient id="linear-gradient-72" x1="-121.97" y1="626.16" x2="-120.63" y2="626.16" gradientTransform="translate(6312.69 30491.84) scale(48.09 -48.09)" xlink:href="#linear-gradient-39"/>
  </defs>
  <g id="Layer_1-2" data-name="Layer 1">
    <g>
      <g>
        <polygon class="cls-22" points="83.1 415.71 83.1 413.78 83.01 413.88 82.99 415.74 83.1 415.71"/>
        <path class="cls-22" d="m151.23,274.32c-.13.36-.28.72-.46,1.07l1.41-.51c-.33-.17-.64-.36-.95-.56Z"/>
        <polygon class="cls-22" points="203.42 317.08 203.42 321.85 203.42 321.85 203.42 317.08 203.42 317.08"/>
        <polygon class="cls-22" points="47 308.49 47 308.49 47 308.49 47 308.49"/>
        <polygon class="cls-40" points="7.68 338.01 7.68 338 7.68 338 7.68 338.01"/>
        <path class="cls-40" d="m4.06,344.91s0,0,0-.01c0,0,0,0,0-.01v.02Z"/>
        <path class="cls-40" d="m322.03,328.64c-.14-.7-.36-1.44-.68-2.19-.56-1.31-1.45-2.6-2.5-3.6-.79-.75-1.64-1.35-2.48-1.8-1.25-.67-2.44-1.02-3.48-1.23-1.06-.2-2.01-.26-2.9-.26-.84,0-1.71.11-2.54.32l-14.37,3.73s-.01,0-.02,0h-.01l-92.5,24.3c.34-1.02.52-2.1.52-3.22v-2.67c1.46.36,3.03.4,4.6.04.02,0,1.27-.29,3.43-.79,2.17-.51,5.25-1.24,8.95-2.15,5.55-1.36,12.49-3.11,19.8-5.07,5.48-1.47,11.17-3.07,16.66-4.72,4.12-1.24,8.12-2.51,11.84-3.8,2.8-.96,5.44-1.93,7.89-2.91,1.83-.74,3.55-1.48,5.16-2.25,1.21-.58,2.35-1.18,3.46-1.81.82-.48,1.63-.99,2.42-1.56.6-.43,1.2-.9,1.8-1.45.91-.82,1.86-1.8,2.79-3.29.45-.75.9-1.62,1.24-2.68.34-1.05.57-2.28.57-3.6,0-1.25-.22-2.57-.63-3.75-.31-.89-.72-1.71-1.18-2.43-.68-1.07-1.46-1.92-2.21-2.59-.04-.04-.09-.08-.13-.11.67-.31,1.32-.68,1.92-1.14,2.53-1.91,4.02-4.9,4.02-8.07v-53.67c0-3.17-1.48-6.16-4.02-8.07-2.54-1.91-5.82-2.51-8.87-1.64l-79.52,22.84v-69.08c0-3.2-1.53-6.23-4.11-8.13l-4.74-3.5c2.35,0,4.63-.47,6.8-1.37,3.16-1.32,5.87-3.5,7.82-6.28,1.04-1.48,1.84-3.09,2.39-4.79.57-1.78.86-3.64.86-5.52,0-1-.08-2.03-.26-3.02l-6.51-38,27.59-26.9h.01s.01-.02.01-.02c1.73-1.68,3.13-3.77,4.06-6.03.88-2.16,1.34-4.46,1.34-6.82-.02-4.19-1.41-8.11-4.04-11.35-1.4-1.72-3.07-3.14-4.98-4.24-1.94-1.11-4.14-1.88-6.38-2.2l-38.13-5.54-17.06-34.56v-.03s-.01,0-.01,0c-.77-1.56-1.76-2.99-2.95-4.26-1.72-1.85-3.87-3.34-6.21-4.32-2.2-.93-4.54-1.39-6.94-1.39h0c-.45,0-.91.01-1.41.06-2.83.19-5.5,1.02-7.95,2.47-1.5.88-2.85,1.97-4.03,3.25-1.18,1.27-2.17,2.72-2.95,4.29l-16.98,34.5-38.02,5.56-7.61,1.11.25,1.69c-.06.04-.13.09-.2.13-1.77,1.21-3.32,2.73-4.57,4.53-.24.34-.47.69-.69,1.05l-.04.06-.08.12-.08.15-.12.2-.04.09c-1.41,2.59-2.17,5.51-2.2,8.46v.39c0,.36.02.72.05,1.11v.06l.03.26c.09.99.26,1.99.53,2.97v.04s.09.3.09.3l.02.07v.05s.02.02.02.02c.11.38.24.78.4,1.19l.05.15c.05.14.1.28.16.42.17.4.33.74.45.97v.03c.08.14.14.27.21.4.22.42.42.77.61,1.08h0c.1.18.2.34.3.5.23.34.42.61.57.82l.05.06c.15.21.31.42.47.62.17.22.33.4.5.58h0c.12.15.29.36.52.59l.03.04.04.04.2.2.04.04.04.04,27.42,26.82-6.51,38.12-1.3,7.56,1.67.29c.2.7.43,1.38.7,2.04.63,1.51,1.47,2.95,2.51,4.27.1.13.21.26.32.39h.01s.01.03.01.03c.15.19.29.35.42.5l.14.15.13.13c.27.29.49.49.61.59h.02s.01.03.01.03h0c.15.15.31.3.46.44,1.46,1.3,3.11,2.34,4.88,3.1,1.88.8,3.88,1.27,5.95,1.41.11,0,.22.01.33.02h.05c.18.01.45.03.78.03h.22c.78,0,1.56-.06,2.33-.16l-16.74,12.98c-2.48,1.92-3.91,4.84-3.91,7.98v5.78c-.45-.31-.93-.6-1.44-.84-3.52-1.66-7.72-1.15-10.73,1.32l-33.13,27.22c-2.34,1.92-3.69,4.77-3.69,7.8v81.13c0,.84.1,1.68.31,2.48-19.77,11.65-27.53,19.42-28.21,20.13h0c-.77.78-1.49,1.59-2.18,2.47-.74.94-1.46,1.95-2.15,3.04-1.28,2.01-2.51,4.31-3.62,6.9-1.16,2.72-2.16,5.72-2.89,8.97-.72,3.27-1.18,6.78-1.18,10.48,0,3.43.39,7.03,1.3,10.68h0c.67,2.7,1.68,5.2,2.88,7.46,2.1,3.96,4.79,7.2,7.52,9.88,4.12,4.03,8.39,6.85,11.72,8.76,3.32,1.91,5.69,2.89,6,3.02,1.11.45,2.28.7,3.48.75.1,0,.24,0,.45,0,.31,0,.72,0,1.29-.06.29-.03.62-.06,1.02-.13.35-.06.75-.14,1.25-.27.02,0,.03,0,.06-.01.03-.01.08-.02.11-.03.02,0,.04,0,.06-.01t.01,0c.36-.1.77-.24,1.27-.45.45-.2.95-.44,1.54-.82.06-.03.11-.07.17-.1.01,3.47.02,7.58.02,11.99,0,10.49-.03,22.7-.08,32.28-.02,4.79-.03,8.92-.06,11.86v.52l-9.84,9.84c-3.21,3.21-3.89,8.17-1.64,12.13,2.24,3.95,6.85,5.92,11.25,4.81l248.55-62.56c1.91-.48,3.66-1.53,4.99-2.98l26.05-28.55c1.69-1.85,2.64-4.31,2.64-6.81v-52.52c.13-.62.22-1.34.22-2.2,0-.66-.06-1.4-.22-2.2Zm-118.6,3.57v-25.22c-6.76-1.21,51.96-17.48,76.88-2.69,12.82,7.61-76.88,27.91-76.88,27.91Zm-96.23-173.21h-.15s-.06,0-.06,0c-.14,0-.27-.02-.41-.03-.08,0-.15,0-.23,0-1.21-.08-2.38-.35-3.46-.81-1.02-.43-1.96-1.03-2.82-1.8-.1-.09-.19-.18-.29-.27-.11-.1-.23-.21-.33-.32l-.08-.09-.06-.07c-.08-.08-.16-.18-.24-.28-.06-.08-.13-.16-.2-.24-.56-.71-1.07-1.53-1.45-2.46-.48-1.16-.77-2.51-.77-3.87,0-.61.07-1.2.17-1.78h-.01s7.18-42.08,7.18-42.08l-30.29-29.63-.2-.2c-.1-.1-.18-.22-.27-.32-.1-.12-.21-.23-.31-.35-.1-.13-.2-.26-.29-.39-.12-.15-.23-.31-.33-.47-.07-.1-.13-.2-.18-.3-.13-.2-.24-.4-.36-.61-.03-.07-.06-.14-.09-.21-.1-.2-.2-.39-.29-.59l-.05-.14h0s-.03-.1-.03-.1c-.1-.28-.21-.56-.29-.85h0c-.18-.64-.3-1.27-.36-1.91v-.02c-.03-.31-.04-.61-.04-.91v-.03c0-1.78.45-3.52,1.34-5.11h0s0-.02,0-.02l.05-.08c.14-.24.29-.47.44-.68.69-.99,1.57-1.89,2.64-2.63,1.25-.86,2.77-1.45,4.33-1.66h0s42.01-6.14,42.01-6.14l18.74-38.08.02-.03h0c.44-.9,1.01-1.73,1.69-2.47.69-.74,1.47-1.37,2.3-1.85,1.46-.86,3.04-1.32,4.61-1.42.29-.02.57-.03.85-.03,1.34,0,2.7.26,3.99.8,1.3.54,2.53,1.38,3.55,2.47.68.73,1.26,1.57,1.7,2.47l18.84,38.17,42.12,6.12c1.28.18,2.55.62,3.66,1.26,1.11.64,2.08,1.48,2.84,2.41,1.53,1.88,2.32,4.14,2.33,6.53,0,1.3-.25,2.63-.77,3.91-.53,1.27-1.34,2.48-2.33,3.46h0s-30.48,29.72-30.48,29.72l7.2,41.95h0c.1.6.15,1.18.15,1.76,0,1.08-.17,2.16-.49,3.16-.32,1-.79,1.92-1.36,2.74-1.15,1.63-2.69,2.86-4.5,3.62-1.21.51-2.56.79-3.96.79h-.08s-.13,0-.13,0h-.03c-1.45,0-2.97-.33-4.35-.97l-.38-.19-37.7-19.67-16.77,8.75-20.71,10.89c-1.46.78-3.15,1.19-4.76,1.19Zm83.76,19.28v76.47l-34.16,11.16v-112.78l34.16,25.15Zm-91.97,9.19l42.77-33.19v116.56l-42.77,15.62v-98.99Zm-48.98,41.29l33.12-27.21v91.3l-33.12,17.04v-81.13Zm-15.16,164.52c-.24.59-.42,1.07-.55,1.44-.42.13-1.04.1-1.04.1,0,0-18.5-7.57-22.16-22.23-2.19-8.81-.46-17.35,2.26-23.73.87-2.05,1.85-3.88,2.84-5.42,1.05-1.65,2.11-2.97,3.05-3.89,0,0,8.61-8.86,32.66-22.22,5.86-3.26,39.06-20.15,52.71-25.32l46.16-16.61c.17-.35.32-.7.45-1.07.31.2.63.39.95.56l41.01-14.75,90.17-25.91v53.67s-19.59-5.63-59.53,2.35c-22.89,4.58-47.97,12.3-65.2,18.05h-.01c-13.33,5.36-22.08,9.23-22.08,9.23,0,0-34.15,16.2-65.82,37.41-25.11,16.81-33.49,32.55-35.88,38.34Zm156.11-87.26v38.68l-34.16,9.77v-38.33l34.16-10.11Zm120.98,25.59v53.95l-26.06,28.54-248.54,62.56,12.78-12.78s.36-62.65,0-70.98c-.36-8.35,7.98-18.46,11.89-23.25,3.9-4.79,22.14-17.35,22.14-17.35l-1.02,46.62h0s-.11,14.96-.11,14.96l.09-.1v1.94l-.1.02-.08,10.42,170.13-41.6,16.49-19.83-171,42.92v-65.61l43.04-19.7.06,16.7h0s.13,34.77.13,34.77l3.92-1.03h0l149.92-39.39,14.37-3.73c3.13,0,1.96,1.95,1.96,1.95Z"/>
        <polygon class="cls-64" points="50 309.89 83.13 292.86 83.13 201.55 50 228.76 50 309.89"/>
        <polygon class="cls-33" points="60.75 422.98 60.75 446.67 253.04 398.31 253.04 384.56 82.92 426.15 82.99 415.74 83.01 413.88 83.12 398.91 83.12 398.92 83.12 398.93 60.75 422.98"/>
        <path class="cls-64" d="m311.93,331.61s1.18-1.95-1.95-1.95l-14.38,3.73-26.07,31.34h0l-16.49,19.83v13.75l-192.29,48.36v-8.84l22.36-24.05v-14.86s1.02-46.61,1.02-46.61c0,0-18.23,12.56-22.14,17.35-3.9,4.79-12.25,14.91-11.89,23.25s0,70.99,0,70.99l-12.78,12.78,248.54-62.56,26.06-28.54v-53.95Z"/>
        <polygon class="cls-16" points="141.75 154.28 141.75 181.06 98.98 211.59 98.98 187.47 141.75 154.28"/>
        <polygon class="cls-80" points="141.75 181.06 141.75 211.55 98.98 242.08 98.98 211.59 141.75 181.06"/>
        <polygon class="cls-19" points="141.75 211.55 141.75 241.21 98.98 271.74 98.98 242.08 141.75 211.55"/>
        <polygon class="cls-82" points="141.75 241.21 141.75 270.85 98.98 286.47 98.98 271.74 141.75 241.21"/>
        <polygon class="cls-10" points="141.63 339.04 141.63 339.05 98.54 369.79 98.54 342.04 141.57 322.34 141.63 339.04"/>
        <polygon class="cls-33" points="145.67 372.78 98.54 406.42 98.54 369.79 141.63 339.05 141.75 373.81 145.67 372.78"/>
        <polygon class="cls-14" points="295.61 333.39 269.53 364.73 98.54 407.65 98.54 406.42 145.67 372.78 145.68 372.78 295.61 333.39"/>
        <polygon class="cls-64" points="190.95 178.28 156.79 153.13 156.79 265.91 190.95 254.75 190.95 178.28"/>
        <polygon class="cls-64" points="156.79 316.13 156.79 354.47 190.95 344.71 190.95 306.02 156.79 316.13"/>
        <polygon class="cls-64" points="140.19 13.43 140.18 13.44 140.19 13.43 140.19 13.43"/>
        <polygon class="cls-64" points="144.69 93.04 113.71 101.74 144.7 93.05 144.69 93.04"/>
        <path class="cls-64" d="m149.44,138.17l37.7,19.68.37.18c1.38.65,2.91.97,4.36.97h.02s.13,0,.13,0h.08s0,0,0,0c1.4,0,2.74-.29,3.95-.79,1.81-.76,3.35-1.98,4.5-3.62.57-.82,1.04-1.74,1.36-2.74.32-1,.5-2.08.5-3.16,0-.57-.05-1.16-.15-1.74h0s-7.2-41.96-7.2-41.96l30.48-29.71h0c1-.98,1.81-2.18,2.33-3.46.53-1.28.77-2.62.77-3.91,0-2.39-.8-4.65-2.33-6.53-.76-.94-1.72-1.77-2.84-2.41-1.11-.64-2.38-1.08-3.66-1.26l-42.12-6.12-18.84-38.17h0c-.44-.9-1.02-1.74-1.7-2.47-1.02-1.1-2.26-1.94-3.55-2.48-1.3-.54-2.65-.8-3.99-.8-.28,0-.57.02-.85.04-1.57.1-3.15.55-4.61,1.42-.83.49-1.61,1.11-2.3,1.86-.68.73-1.25,1.57-1.69,2.46l-.02.04.02-.03-18.76,38.12-42.01,6.14h0c-1.56.22-3.08.81-4.32,1.67-1.08.73-1.95,1.64-2.64,2.63-.16.22-.3.45-.44.69l-.05.08h0s0,.02,0,.02c-.9,1.59-1.34,3.33-1.35,5.11h0s0,.03,0,.03c0,.3.02.6.04.9v.02c.06.63.18,1.27.36,1.9h0c.08.29.18.58.29.86l.03.08h0s.05.15.05.15c.08.2.19.4.28.6.03.07.06.14.1.2.11.21.23.41.35.61.06.1.12.2.18.3.11.16.22.32.34.47.1.13.19.26.29.39.1.12.2.23.3.35.09.11.18.22.28.32l.2.2,30.29,29.63-7.18,42.08h.01c-.1.59-.17,1.18-.17,1.79,0,1.37.28,2.71.77,3.87.38.93.89,1.75,1.45,2.46.06.08.13.16.2.24.08.09.15.19.23.28l.07.07.08.09c.11.11.23.21.34.32.09.09.19.18.28.27.86.77,1.81,1.37,2.82,1.8,1.08.46,2.24.73,3.45.8.08,0,.15,0,.23.01.14,0,.28.02.42.02h.06s.12,0,.12,0h.03c1.61,0,3.3-.41,4.76-1.19l20.71-10.89,16.77-8.75Zm-75.73-62.89h0s0,0,0,0Zm113.59,82.53h0s0,0,0,0h0Zm-79.75-7.99c-.56.26-1.18.09-1.55-.29-.24-.26-.37-.63-.28-1.03l7.98-46.75-33.68-32.95c-.43-.45-.47-1.08-.21-1.55.18-.31.49-.54.9-.59l46.74-6.83h0s20.86-42.4,20.86-42.4c.23-.48.69-.71,1.15-.69.43.01.87.24,1.1.69l20.92,42.39,46.86,6.86c.41.08.76.27.98.51.33.36.38.83-.09,1.24l-33.98,33.45-.07-.02,7.96,46.64c.13.53-.13,1-.53,1.24-.36.23-.84.29-1.28.08l-41.89-21.86-41.89,21.86Z"/>
        <polygon class="cls-64" points="127.64 59.8 127.46 59.83 148.59 90.45 127.64 59.8"/>
        <polygon class="cls-64" points="151.61 92.32 149.48 91.71 149.46 91.71 148.59 90.45 149.45 91.7 149.46 91.71 151.61 92.32"/>
        <polygon class="cls-64" points="149.46 91.72 149.46 91.71 149.46 91.71 149.44 91.71 144.72 93.03 144.73 93.05 149.44 91.73 149.44 91.74 149.45 91.72 149.46 91.72"/>
        <line class="cls-21" x1="73.71" y1="75.28" x2="73.71" y2="75.28"/>
        <polygon class="cls-40" points="140.19 13.43 140.18 13.44 140.17 13.47 140.19 13.43"/>
        <polygon class="cls-40" points="187.3 157.81 187.31 157.81 187.3 157.81 187.3 157.81"/>
        <polygon class="cls-64" points="144.69 93.04 144.7 93.05 144.73 93.05 144.72 93.03 144.69 93.04"/>
        <polygon class="cls-6" points="144.69 93.04 144.7 93.05 144.73 93.05 144.72 93.03 144.69 93.04"/>
        <polygon class="cls-48" points="144.69 93.04 144.7 93.05 144.73 93.05 144.72 93.03 144.69 93.04"/>
        <path class="cls-64" d="m148.59,90.45l.87,1.26V16.73c-.46-.01-.92.22-1.15.69l-20.86,42.39h0s.18-.02.18-.02l20.96,30.65Zm-8.19-36.16v8.14l-2.33-3.41,2.33-4.73Z"/>
        <path class="cls-53" d="m148.59,90.45l.87,1.26V16.73c-.46-.01-.92.22-1.15.69l-20.86,42.39h0s.18-.02.18-.02l20.96,30.65Zm-8.19-36.16v8.14l-2.33-3.41,2.33-4.73Z"/>
        <polygon class="cls-40" points="140.41 54.29 138.07 59.02 140.41 62.43 140.41 54.29"/>
        <polygon class="cls-83" points="140.41 54.29 138.07 59.02 140.41 62.43 140.41 54.29"/>
        <path class="cls-64" d="m171.48,59.82l-20.92-42.39c-.23-.45-.66-.68-1.1-.69v74.97l22.01-31.89Zm-12.96-5.79l2.48,5.03-2.48,3.59v-8.62Z"/>
        <path class="cls-20" d="m171.48,59.82l-20.92-42.39c-.23-.45-.66-.68-1.1-.69v74.97l22.01-31.89Zm-12.96-5.79l2.48,5.03-2.48,3.59v-8.62Z"/>
        <polygon class="cls-40" points="158.52 54.03 158.52 62.65 161 59.05 158.52 54.03"/>
        <polygon class="cls-12" points="158.52 54.03 158.52 62.65 161 59.05 158.52 54.03"/>
        <path class="cls-64" d="m149.48,91.71l69.84-24.52c-.22-.24-.57-.43-.98-.51l-46.86-6.86-22.01,31.89h.02Zm26.25-22.12l6.64.97-9.65,3.39,3.01-4.36Z"/>
        <path class="cls-51" d="m149.48,91.71l69.84-24.52c-.22-.24-.57-.43-.98-.51l-46.86-6.86-22.01,31.89h.02Zm26.25-22.12l6.64.97-9.65,3.39,3.01-4.36Z"/>
        <polygon class="cls-40" points="175.73 69.6 172.72 73.95 182.37 70.57 175.73 69.6"/>
        <polygon class="cls-62" points="175.73 69.6 172.72 73.95 182.37 70.57 175.73 69.6"/>
        <path class="cls-64" d="m151.61,92.32l33.55,9.43.02.12.07.02,33.98-33.45c.46-.41.42-.88.09-1.24l-69.84,24.52,2.12.6Zm34.32-3.8l-3.19,3.14-3.2-.9,6.38-2.24Z"/>
        <path class="cls-55" d="m151.61,92.32l33.55,9.43.02.12.07.02,33.98-33.45c.46-.41.42-.88.09-1.24l-69.84,24.52,2.12.6Zm34.32-3.8l-3.19,3.14-3.2-.9,6.38-2.24Z"/>
        <polygon class="cls-40" points="185.92 88.51 179.54 90.76 182.73 91.65 185.92 88.51"/>
        <polygon class="cls-79" points="185.92 88.51 179.54 90.76 182.73 91.65 185.92 88.51"/>
        <path class="cls-13" d="m113.24,109.31l29.15-8.19,4.11-5.47h0s2.93-3.92,2.93-3.92h0s-4.71,1.31-4.71,1.31h-.03s-30.99,8.7-30.99,8.7l-7.98,46.75c-.09.41.04.77.28,1.03l36.37-48.39-29.13,8.17Z"/>
        <path class="cls-64" d="m149.44,91.74l-2.93,3.9,1.62,2.37-1.63-2.36-4.11,5.47,6.58-1.85h.02s0,0,0,0h0s-.01,0-.01,0h-.01s-6.6,1.85-6.6,1.85l-36.37,48.39c.36.38.98.54,1.55.29l41.89-21.86v-36.22Zm-9.06,30.67l-4.41,2.32,4.41-5.86v3.55Z"/>
        <path class="cls-18" d="m149.44,91.74l-2.93,3.9,1.62,2.37-1.63-2.36-4.11,5.47,6.58-1.85h.02s0,0,0,0h0s-.01,0-.01,0h-.01s-6.6,1.85-6.6,1.85l-36.37,48.39c.36.38.98.54,1.55.29l41.89-21.86v-36.22Zm-9.06,30.67l-4.41,2.32,4.41-5.86v3.55Z"/>
        <polygon class="cls-40" points="140.38 122.4 140.38 118.86 135.98 124.72 140.38 122.4"/>
        <polygon class="cls-2" points="140.38 122.4 140.38 118.86 135.98 124.72 140.38 122.4"/>
        <polygon class="cls-64" points="148.13 98.01 146.5 95.64 146.5 95.65 148.13 98.01"/>
        <polygon class="cls-31" points="148.13 98.01 146.5 95.64 146.5 95.65 148.13 98.01"/>
        <polygon class="cls-47" points="148.13 98.01 146.5 95.64 146.5 95.65 148.13 98.01"/>
        <polygon class="cls-17" points="148.13 98.01 146.5 95.64 146.5 95.65 148.13 98.01"/>
        <path class="cls-13" d="m151.61,92.32l-2.15-.6h0s-.01,0-.01,0h-.01s43.17,58.01,43.17,58.01c.4-.24.66-.71.53-1.24l-7.96-46.64-.02-.12-33.55-9.43Z"/>
        <path class="cls-64" d="m149.44,127.96l41.89,21.86c.44.21.92.14,1.28-.08l-43.17-58v36.22Zm9.06-8.89l3.83,5.15-3.83-2.01v-3.13Z"/>
        <path class="cls-36" d="m149.44,127.96l41.89,21.86c.44.21.92.14,1.28-.08l-43.17-58v36.22Zm9.06-8.89l3.83,5.15-3.83-2.01v-3.13Z"/>
        <polygon class="cls-40" points="158.49 119.07 158.49 122.2 162.33 124.22 158.49 119.07"/>
        <polygon class="cls-3" points="158.49 119.07 158.49 122.2 162.33 124.22 158.49 119.07"/>
        <path class="cls-64" d="m126.99,67.39l.18-.03,14.86,21.72,7.43,2.61-.86-1.25-21.14-30.62-46.74,6.83c-.41.04-.73.28-.9.59l62.13,21.82-14.96-21.67Zm-10.32,3.19l6.56-.95,2.97,4.3-9.52-3.34Z"/>
        <path class="cls-68" d="m126.99,67.39l.18-.03,14.86,21.72,7.43,2.61-.86-1.25-21.14-30.62-46.74,6.83c-.41.04-.73.28-.9.59l62.13,21.82-14.96-21.67Zm-10.32,3.19l6.56-.95,2.97,4.3-9.52-3.34Z"/>
        <polygon class="cls-40" points="116.67 70.59 126.19 73.93 123.22 69.64 116.67 70.59"/>
        <polygon class="cls-4" points="116.67 70.59 126.19 73.93 123.22 69.64 116.67 70.59"/>
        <polygon class="cls-64" points="127.17 67.37 126.99 67.39 141.95 89.06 142.03 89.09 127.17 67.37"/>
        <polygon class="cls-46" points="127.17 67.37 126.99 67.39 141.95 89.06 142.03 89.09 127.17 67.37"/>
        <polygon class="cls-11" points="127.17 67.37 126.99 67.39 141.95 89.06 142.03 89.09 127.17 67.37"/>
        <polygon class="cls-37" points="127.17 67.37 126.99 67.39 141.95 89.06 142.03 89.09 127.17 67.37"/>
        <path class="cls-64" d="m141.95,89.06l-62.13-21.82c-.26.46-.23,1.1.21,1.55l33.68,32.95,30.98-8.7-2.74-3.97Zm-28.61-.45l6.05,2.12-3,.84-3.04-2.97Z"/>
        <path class="cls-32" d="m141.95,89.06l-62.13-21.82c-.26.46-.23,1.1.21,1.55l33.68,32.95,30.98-8.7-2.74-3.97Zm-28.61-.45l6.05,2.12-3,.84-3.04-2.97Z"/>
        <polygon class="cls-64" points="149.44 91.71 149.46 91.71 149.46 91.71 149.45 91.7 142.03 89.09 144.72 93.03 149.44 91.71"/>
        <polygon class="cls-65" points="149.44 91.71 149.46 91.71 149.46 91.71 149.45 91.7 142.03 89.09 144.72 93.03 149.44 91.71"/>
        <polygon class="cls-40" points="113.34 88.62 116.39 91.58 119.39 90.74 113.34 88.62"/>
        <polygon class="cls-34" points="113.34 88.62 116.39 91.58 119.39 90.74 113.34 88.62"/>
        <polygon class="cls-64" points="142.03 89.09 141.95 89.06 144.69 93.04 144.72 93.03 142.03 89.09"/>
        <polygon class="cls-66" points="142.03 89.09 141.95 89.06 144.69 93.04 144.72 93.03 142.03 89.09"/>
        <polygon class="cls-56" points="142.03 89.09 141.95 89.06 144.69 93.04 144.72 93.03 142.03 89.09"/>
        <polygon class="cls-77" points="142.03 89.09 141.95 89.06 144.69 93.04 144.72 93.03 142.03 89.09"/>
        <polygon class="cls-13" points="142.37 101.14 148.97 99.29 148.97 99.27 142.39 101.12 113.24 109.31 142.37 101.14"/>
        <polygon class="cls-74" points="142.37 101.14 148.97 99.29 148.97 99.27 142.39 101.12 113.24 109.31 142.37 101.14"/>
        <polygon class="cls-13" points="148.99 99.28 148.99 99.28 148.99 99.28 148.98 99.29 148.99 99.28"/>
        <polygon class="cls-70" points="148.99 99.28 148.99 99.28 148.99 99.28 148.98 99.29 148.99 99.28"/>
        <polygon class="cls-64" points="148.98 99.29 148.99 99.28 148.97 99.27 148.97 99.29 148.98 99.29"/>
        <polygon class="cls-23" points="148.98 99.29 148.99 99.28 148.97 99.27 148.97 99.29 148.98 99.29"/>
        <path class="cls-40" d="m228.53,284.12c-24.74,6.72-51.61,16.84-69.88,24.17,17.23-5.75,42.3-13.47,65.2-18.05,39.94-7.98,59.53-2.35,59.53-2.35v-12.19c-10.27-.04-28.61,1.29-54.84,8.42Z"/>
        <path class="cls-43" d="m228.53,284.12c-24.74,6.72-51.61,16.84-69.88,24.17,17.23-5.75,42.3-13.47,65.2-18.05,39.94-7.98,59.53-2.35,59.53-2.35v-12.19c-10.27-.04-28.61,1.29-54.84,8.42Z"/>
        <path class="cls-14" d="m33.26,394.81s.61.02,1.04-.1c.13-.37.31-.85.55-1.44,2.39-5.8,10.77-21.53,35.88-38.34,31.67-21.2,65.82-37.41,65.82-37.41,0,0,8.75-3.87,22.08-9.22h.01c18.27-7.34,45.15-17.46,69.88-24.18,26.23-7.13,44.57-8.46,54.84-8.42v-41.48l-90.17,25.9-41.01,14.76-1.41.51-46.16,16.61c-13.65,5.17-46.85,22.06-52.71,25.32-24.05,13.36-32.66,22.22-32.66,22.22-.94.92-2,2.24-3.05,3.89-.98,1.54-1.96,3.36-2.84,5.42-2.72,6.38-4.46,14.93-2.26,23.73,3.66,14.66,22.16,22.23,22.16,22.23Z"/>
        <path class="cls-40" d="m280.31,304.3c-24.92-14.8-83.64,1.48-76.89,2.69v25.23s89.71-20.3,76.89-27.91Z"/>
        <path class="cls-5" d="m280.31,304.3c-24.92-14.8-83.64,1.48-76.89,2.69v25.23s89.71-20.3,76.89-27.91Z"/>
      </g>
      <g>
        <g>
          <polygon class="cls-64" points="503.3 299.51 503.3 299.52 503.3 299.51 503.3 299.51"/>
          <polygon class="cls-64" points="507.47 373.09 478.83 381.13 507.48 373.1 507.47 373.09"/>
          <path class="cls-64" d="m511.85,414.8l34.84,18.19.34.17c1.28.6,2.69.9,4.03.9h.02s.12,0,.12,0h.07s0,0,0,0c1.3,0,2.54-.27,3.65-.73,1.67-.7,3.1-1.83,4.16-3.34.53-.75.96-1.61,1.26-2.53.3-.92.46-1.92.46-2.92,0-.53-.04-1.07-.14-1.61h0s-6.65-38.78-6.65-38.78l28.17-27.46h0c.92-.91,1.67-2.02,2.16-3.2.49-1.18.72-2.42.71-3.62,0-2.21-.74-4.3-2.15-6.04-.71-.87-1.59-1.64-2.62-2.23-1.03-.59-2.2-1-3.38-1.17l-38.93-5.66-17.41-35.28h0c-.41-.83-.94-1.61-1.57-2.28-.94-1.02-2.09-1.79-3.28-2.29-1.2-.5-2.45-.74-3.69-.74-.26,0-.52.01-.78.04-1.45.09-2.91.51-4.26,1.31-.77.45-1.49,1.03-2.12,1.71-.62.67-1.16,1.45-1.56,2.27l-.02.04.02-.03-17.34,35.23-38.83,5.67h0c-1.44.2-2.85.75-4,1.54-.99.68-1.8,1.51-2.44,2.43-.14.2-.28.41-.41.63l-.05.07h0s0,.02,0,.02c-.83,1.47-1.24,3.08-1.25,4.72h0s0,.03,0,.03c0,.28.01.56.04.84v.02c.05.59.16,1.17.33,1.76h0c.08.27.17.53.27.79l.03.08h0s.04.14.04.14c.08.19.17.37.26.55l.09.19c.1.19.21.38.32.57l.17.27c.1.15.21.29.31.44.09.12.18.24.27.36l.28.32.26.29.18.19,28,27.39-6.64,38.89h.01c-.1.54-.16,1.09-.16,1.65,0,1.26.26,2.5.71,3.58.36.86.82,1.62,1.34,2.27l.19.22.21.26.06.06.07.09.31.3.26.25c.79.71,1.67,1.26,2.61,1.67,1,.42,2.07.67,3.19.74h.21c.13.02.25.03.38.03h.06s.11,0,.11,0h.03c1.49,0,3.05-.38,4.4-1.1l19.14-10.06,15.5-8.09Z"/>
          <path class="cls-64" d="m473.14,425.56c-.52.24-1.09.09-1.43-.27-.22-.24-.34-.58-.25-.95l7.38-43.21-31.13-30.45c-.4-.42-.43-1-.19-1.43.16-.28.45-.5.83-.54l43.19-6.31h0s19.28-39.19,19.28-39.19c.21-.44.64-.65,1.06-.64.4.01.8.23,1.01.64l19.33,39.18,43.31,6.34c.38.08.71.25.91.47.31.33.35.77-.08,1.15l-31.4,30.92-.07-.02,7.36,43.1c.12.49-.12.92-.49,1.15-.34.21-.78.27-1.19.08l-38.72-20.21-38.72,20.21Z"/>
          <polygon class="cls-64" points="491.71 342.37 491.54 342.39 511.07 370.69 491.71 342.37"/>
          <polygon class="cls-64" points="513.86 372.42 511.89 371.86 511.88 371.85 511.07 370.69 511.87 371.85 511.87 371.86 513.86 372.42"/>
          <polygon class="cls-64" points="511.88 371.87 511.87 371.86 511.87 371.86 511.85 371.85 507.49 373.08 507.5 373.09 511.85 371.87 511.85 371.88 511.86 371.87 511.88 371.87"/>
          <polygon class="cls-40" points="503.3 299.51 503.3 299.52 503.28 299.55 503.3 299.51"/>
          <polygon class="cls-64" points="507.47 373.09 507.48 373.1 507.5 373.09 507.49 373.08 507.47 373.09"/>
          <polygon class="cls-27" points="507.47 373.09 507.48 373.1 507.5 373.09 507.49 373.08 507.47 373.09"/>
          <polygon class="cls-41" points="507.47 373.09 507.48 373.1 507.5 373.09 507.49 373.08 507.47 373.09"/>
          <path class="cls-64" d="m511.07,370.69l.8,1.16v-69.29c-.42-.01-.85.2-1.06.64l-19.28,39.18h0s.17-.02.17-.02l19.37,28.32Z"/>
          <polygon class="cls-64" points="503.51 337.27 503.51 344.8 501.35 341.64 503.51 337.27"/>
          <path class="cls-59" d="m511.07,370.69l.8,1.16v-69.29c-.42-.01-.85.2-1.06.64l-19.28,39.18h0s.17-.02.17-.02l19.37,28.32Z"/>
          <polygon class="cls-84" points="503.51 337.27 503.51 344.8 501.35 341.64 503.51 337.27"/>
          <polygon class="cls-40" points="503.51 337.27 501.35 341.64 503.51 344.8 503.51 337.27"/>
          <polygon class="cls-1" points="503.51 337.27 501.35 341.64 503.51 344.8 503.51 337.27"/>
          <path class="cls-64" d="m532.22,342.38l-19.33-39.18c-.21-.42-.61-.63-1.01-.64v69.29l20.34-29.47Z"/>
          <polygon class="cls-64" points="520.25 337.03 522.54 341.68 520.25 345 520.25 337.03"/>
          <path class="cls-52" d="m532.22,342.38l-19.33-39.18c-.21-.42-.61-.63-1.01-.64v69.29l20.34-29.47Z"/>
          <polygon class="cls-29" points="520.25 337.03 522.54 341.68 520.25 345 520.25 337.03"/>
          <polygon class="cls-40" points="520.25 337.03 520.25 345 522.54 341.68 520.25 337.03"/>
          <polygon class="cls-28" points="520.25 337.03 520.25 345 522.54 341.68 520.25 337.03"/>
          <path class="cls-64" d="m511.89,371.86l64.55-22.67c-.2-.23-.53-.4-.91-.47l-43.31-6.34-20.34,29.47h.02Z"/>
          <polygon class="cls-64" points="536.16 351.42 542.29 352.32 533.38 355.45 536.16 351.42"/>
          <path class="cls-15" d="m511.89,371.86l64.55-22.67c-.2-.23-.53-.4-.91-.47l-43.31-6.34-20.34,29.47h.02Z"/>
          <polygon class="cls-35" points="536.16 351.42 542.29 352.32 533.38 355.45 536.16 351.42"/>
          <polygon class="cls-40" points="536.16 351.42 533.38 355.45 542.29 352.32 536.16 351.42"/>
          <polygon class="cls-71" points="536.16 351.42 533.38 355.45 542.29 352.32 536.16 351.42"/>
          <path class="cls-64" d="m513.86,372.42l31.01,8.71.02.11.07.02,31.4-30.92c.43-.38.39-.82.08-1.15l-64.55,22.67,1.96.56Z"/>
          <polygon class="cls-64" points="545.57 368.9 542.63 371.81 539.67 370.98 545.57 368.9"/>
          <path class="cls-50" d="m513.86,372.42l31.01,8.71.02.11.07.02,31.4-30.92c.43-.38.39-.82.08-1.15l-64.55,22.67,1.96.56Z"/>
          <polygon class="cls-75" points="545.57 368.9 542.63 371.81 539.67 370.98 545.57 368.9"/>
          <polygon class="cls-40" points="545.57 368.9 539.67 370.98 542.63 371.81 545.57 368.9"/>
          <polygon class="cls-63" points="545.57 368.9 539.67 370.98 542.63 371.81 545.57 368.9"/>
          <path class="cls-13" d="m478.4,388.12l26.94-7.57,3.8-5.05h0s2.71-3.62,2.71-3.62h0s-4.35,1.21-4.35,1.21h-.03s-28.64,8.04-28.64,8.04l-7.38,43.21c-.09.38.03.71.25.95l33.61-44.72-26.92,7.55Z"/>
          <path class="cls-64" d="m511.85,371.88l-2.71,3.61,1.5,2.19-1.51-2.18-3.8,5.05,6.08-1.71h.02s0,0,0,0h0s-.01,0-.01,0h-.01s-6.1,1.71-6.1,1.71l-33.61,44.72c.34.35.91.5,1.43.27l38.72-20.21v-33.47Z"/>
          <polygon class="cls-64" points="503.48 400.23 499.41 402.37 503.48 396.95 503.48 400.23"/>
          <path class="cls-60" d="m511.85,371.88l-2.71,3.61,1.5,2.19-1.51-2.18-3.8,5.05,6.08-1.71h.02s0,0,0,0h0s-.01,0-.01,0h-.01s-6.1,1.71-6.1,1.71l-33.61,44.72c.34.35.91.5,1.43.27l38.72-20.21v-33.47Z"/>
          <polygon class="cls-61" points="503.48 400.23 499.41 402.37 503.48 396.95 503.48 400.23"/>
          <polygon class="cls-40" points="503.48 400.23 503.48 396.95 499.41 402.37 503.48 400.23"/>
          <polygon class="cls-42" points="503.48 400.23 503.48 396.95 499.41 402.37 503.48 400.23"/>
          <polygon class="cls-64" points="510.64 377.68 509.14 375.49 509.13 375.5 510.64 377.68"/>
          <polygon class="cls-69" points="510.64 377.68 509.14 375.49 509.13 375.5 510.64 377.68"/>
          <polygon class="cls-49" points="510.64 377.68 509.14 375.49 509.13 375.5 510.64 377.68"/>
          <polygon class="cls-57" points="510.64 377.68 509.14 375.49 509.13 375.5 510.64 377.68"/>
          <path class="cls-13" d="m513.86,372.42l-1.98-.56h0s-.01,0-.01,0h-.01s39.9,53.62,39.9,53.62c.37-.23.61-.65.49-1.15l-7.36-43.1-.02-.11-31.01-8.71Z"/>
          <path class="cls-64" d="m511.85,405.36l38.72,20.21c.41.19.85.13,1.19-.08l-39.9-53.61v33.47Z"/>
          <polygon class="cls-64" points="520.22 397.14 523.76 401.9 520.22 400.04 520.22 397.14"/>
          <path class="cls-38" d="m511.85,405.36l38.72,20.21c.41.19.85.13,1.19-.08l-39.9-53.61v33.47Z"/>
          <polygon class="cls-39" points="520.22 397.14 523.76 401.9 520.22 400.04 520.22 397.14"/>
          <polygon class="cls-40" points="520.22 397.14 520.22 400.04 523.76 401.9 520.22 397.14"/>
          <polygon class="cls-78" points="520.22 397.14 520.22 400.04 523.76 401.9 520.22 397.14"/>
          <path class="cls-64" d="m491.1,349.38l.17-.02,13.73,20.08,6.86,2.41-.79-1.16-19.54-28.3-43.19,6.31c-.38.04-.67.26-.83.54l57.42,20.17-13.83-20.03Z"/>
          <polygon class="cls-64" points="481.57 352.34 487.62 351.46 490.37 355.43 481.57 352.34"/>
          <path class="cls-9" d="m491.1,349.38l.17-.02,13.73,20.08,6.86,2.41-.79-1.16-19.54-28.3-43.19,6.31c-.38.04-.67.26-.83.54l57.42,20.17-13.83-20.03Z"/>
          <polygon class="cls-25" points="481.57 352.34 487.62 351.46 490.37 355.43 481.57 352.34"/>
          <polygon class="cls-40" points="481.57 352.34 490.37 355.43 487.62 351.46 481.57 352.34"/>
          <polygon class="cls-45" points="481.57 352.34 490.37 355.43 487.62 351.46 481.57 352.34"/>
          <polygon class="cls-64" points="491.27 349.36 491.1 349.38 504.93 369.41 505 369.44 491.27 349.36"/>
          <polygon class="cls-44" points="491.27 349.36 491.1 349.38 504.93 369.41 505 369.44 491.27 349.36"/>
          <polygon class="cls-67" points="491.27 349.36 491.1 349.38 504.93 369.41 505 369.44 491.27 349.36"/>
          <polygon class="cls-7" points="491.27 349.36 491.1 349.38 504.93 369.41 505 369.44 491.27 349.36"/>
          <path class="cls-64" d="m504.93,369.41l-57.42-20.17c-.24.43-.21,1.01.19,1.43l31.13,30.45,28.64-8.04-2.54-3.67Z"/>
          <polygon class="cls-64" points="478.49 369 484.08 370.96 481.31 371.74 478.49 369"/>
          <path class="cls-26" d="m504.93,369.41l-57.42-20.17c-.24.43-.21,1.01.19,1.43l31.13,30.45,28.64-8.04-2.54-3.67Z"/>
          <polygon class="cls-76" points="478.49 369 484.08 370.96 481.31 371.74 478.49 369"/>
          <polygon class="cls-64" points="511.85 371.85 511.87 371.86 511.87 371.86 511.87 371.85 505 369.44 507.49 373.08 511.85 371.85"/>
          <polygon class="cls-58" points="511.85 371.85 511.87 371.86 511.87 371.86 511.87 371.85 505 369.44 507.49 373.08 511.85 371.85"/>
          <polygon class="cls-40" points="478.49 369 481.31 371.74 484.08 370.96 478.49 369"/>
          <polygon class="cls-30" points="478.49 369 481.31 371.74 484.08 370.96 478.49 369"/>
          <polygon class="cls-64" points="505 369.44 504.93 369.41 507.47 373.09 507.49 373.08 505 369.44"/>
          <polygon class="cls-8" points="505 369.44 504.93 369.41 507.47 373.09 507.49 373.08 505 369.44"/>
          <polygon class="cls-72" points="505 369.44 504.93 369.41 507.47 373.09 507.49 373.08 505 369.44"/>
          <polygon class="cls-54" points="505 369.44 504.93 369.41 507.47 373.09 507.49 373.08 505 369.44"/>
          <polygon class="cls-13" points="505.32 380.57 511.42 378.87 511.42 378.85 505.34 380.56 478.4 388.12 505.32 380.57"/>
          <polygon class="cls-81" points="505.32 380.57 511.42 378.87 511.42 378.85 505.34 380.56 478.4 388.12 505.32 380.57"/>
          <polygon class="cls-13" points="511.44 378.86 511.44 378.85 511.44 378.85 511.43 378.86 511.44 378.86"/>
          <polygon class="cls-24" points="511.44 378.86 511.44 378.85 511.44 378.85 511.43 378.86 511.44 378.86"/>
          <polygon class="cls-64" points="511.43 378.86 511.44 378.85 511.42 378.85 511.42 378.87 511.43 378.86"/>
          <polygon class="cls-73" points="511.43 378.86 511.44 378.85 511.42 378.85 511.42 378.87 511.43 378.86"/>
          <path class="cls-64" d="m442.2,434.05h-71.57c-3.05,0-4.57-1.52-4.57-4.57v-130.74c0-3.04,1.52-4.57,4.57-4.57h18.49c3.05,0,4.57,1.52,4.57,4.57v108.77c0,1.6.87,2.39,2.61,2.39h45.9c2.9,0,4.35,1.6,4.35,4.79v14.79c0,3.05-1.45,4.57-4.35,4.57Z"/>
          <path class="cls-64" d="m619.74,434.05h-18.49c-3.04,0-4.57-1.52-4.57-4.57v-130.74c0-3.04,1.52-4.57,4.57-4.57h51.77c11.31,0,20.16,3.12,26.54,9.35,6.38,6.24,9.57,15.01,9.57,26.32v16.97c0,16.39-6.45,27.27-19.36,32.63v.87l23.28,48.51c1.3,3.48.07,5.22-3.7,5.22h-17.62c-2.61,0-4.5-.29-5.66-.87-1.16-.58-2.1-1.81-2.83-3.7l-21.75-46.99h-14.57c-1.74,0-2.61.8-2.61,2.39v44.59c0,3.05-1.52,4.57-4.57,4.57Zm6.96-73.74h21.32c4.64,0,8.05-.98,10.22-2.94,2.17-1.96,3.26-5.11,3.26-9.46v-16.97c0-4.49-1.09-7.76-3.26-9.79-2.18-2.03-5.58-3.05-10.22-3.05h-21.32c-1.6,0-2.39.8-2.39,2.39v37.42c0,1.6.8,2.39,2.39,2.39Z"/>
          <path class="cls-64" d="m793.11,434.05h-71.13c-3.05,0-4.57-1.52-4.57-4.57v-130.74c0-3.04,1.52-4.57,4.57-4.57h71.13c2.9,0,4.35,1.52,4.35,4.57v14.79c0,3.05-1.45,4.57-4.35,4.57h-45.46c-1.74,0-2.61.8-2.61,2.39v28.28c0,1.6.87,2.39,2.61,2.39h37.2c3.04,0,4.57,1.52,4.57,4.57v14.79c0,3.05-1.52,4.57-4.57,4.57h-37.2c-1.74,0-2.61.8-2.61,2.39v30.24c0,1.6.87,2.39,2.61,2.39h45.46c2.9,0,4.35,1.52,4.35,4.57v14.79c0,3.05-1.45,4.57-4.35,4.57Z"/>
        </g>
        <g>
          <g>
            <path class="cls-64" d="m442.2,252.26h-71.57c-3.05,0-4.57-1.52-4.57-4.57V116.95c0-3.05,1.52-4.57,4.57-4.57h18.49c3.05,0,4.57,1.52,4.57,4.57v108.77c0,1.6.87,2.39,2.61,2.39h45.9c2.9,0,4.35,1.6,4.35,4.79v14.79c0,3.05-1.45,4.57-4.35,4.57Z"/>
            <path class="cls-64" d="m541.17,252.26h-71.13c-3.05,0-4.57-1.52-4.57-4.57V116.95c0-3.05,1.52-4.57,4.57-4.57h71.13c2.9,0,4.35,1.52,4.35,4.57v14.79c0,3.05-1.45,4.57-4.35,4.57h-45.46c-1.74,0-2.61.8-2.61,2.39v28.28c0,1.6.87,2.39,2.61,2.39h37.2c3.05,0,4.57,1.52,4.57,4.57v14.79c0,3.05-1.52,4.57-4.57,4.57h-37.2c-1.74,0-2.61.8-2.61,2.39v30.24c0,1.6.87,2.39,2.61,2.39h45.46c2.9,0,4.35,1.52,4.35,4.57v14.79c0,3.05-1.45,4.57-4.35,4.57Z"/>
            <path class="cls-64" d="m628.4,252.26h-28.5c-3.05,0-4.86-1.52-5.44-4.57l-33.72-130.3c-1.02-3.33.43-5,4.35-5h20.45c2.9,0,4.64,1.52,5.22,4.57l22.84,107.03h.87l22.84-107.03c.58-3.05,2.32-4.57,5.22-4.57h20.45c3.62,0,5.08,1.67,4.35,5l-33.72,130.3c-.73,3.05-2.47,4.57-5.22,4.57Z"/>
            <path class="cls-64" d="m762.18,252.26h-71.13c-3.05,0-4.57-1.52-4.57-4.57V116.95c0-3.05,1.52-4.57,4.57-4.57h71.13c2.9,0,4.35,1.52,4.35,4.57v14.79c0,3.05-1.45,4.57-4.35,4.57h-45.46c-1.74,0-2.61.8-2.61,2.39v28.28c0,1.6.87,2.39,2.61,2.39h37.2c3.04,0,4.57,1.52,4.57,4.57v14.79c0,3.05-1.52,4.57-4.57,4.57h-37.2c-1.74,0-2.61.8-2.61,2.39v30.24c0,1.6.87,2.39,2.61,2.39h45.46c2.9,0,4.35,1.52,4.35,4.57v14.79c0,3.05-1.45,4.57-4.35,4.57Z"/>
            <path class="cls-64" d="m868.55,252.26h-71.57c-3.05,0-4.57-1.52-4.57-4.57V116.95c0-3.05,1.52-4.57,4.57-4.57h18.49c3.04,0,4.57,1.52,4.57,4.57v108.77c0,1.6.87,2.39,2.61,2.39h45.9c2.9,0,4.35,1.6,4.35,4.79v14.79c0,3.05-1.45,4.57-4.35,4.57Z"/>
          </g>
          <g>
            <path class="cls-85" d="m977.25,112.39h18.27c3.19,0,4.79,1.45,4.79,4.35v100.07c0,11.31-3.15,20.05-9.46,26.21-6.31,6.17-15.12,9.25-26.43,9.25h-23.93c-11.46,0-20.31-3.05-26.54-9.14-6.24-6.09-9.35-14.86-9.35-26.32v-99.85c0-3.05,1.52-4.57,4.57-4.57h18.49c3.04,0,4.57,1.52,4.57,4.57v98.54c0,4.64.98,7.94,2.94,9.9,1.96,1.96,5.18,2.94,9.68,2.94h15.01c4.64,0,7.94-.98,9.9-2.94,1.96-1.96,2.94-5.26,2.94-9.9v-98.54c0-3.05,1.52-4.57,4.57-4.57Z"/>
            <path class="cls-85" d="m1052.3,252.26h-18.49c-3.05,0-4.57-1.52-4.57-4.57V116.95c0-3.05,1.52-4.57,4.57-4.57h53.08c11.31,0,20.08,3.08,26.32,9.25,6.23,6.17,9.35,14.9,9.35,26.21v20.88c0,11.31-3.12,20.05-9.35,26.21-6.24,6.17-15.01,9.25-26.32,9.25h-27.41c-1.74,0-2.61.8-2.61,2.39v41.11c0,3.05-1.52,4.57-4.57,4.57Zm6.96-72.22h23.06c4.64,0,7.9-.98,9.79-2.94,1.88-1.96,2.83-5.18,2.83-9.68v-18.27c0-4.64-.94-7.94-2.83-9.9-1.89-1.96-5.15-2.94-9.79-2.94h-23.06c-1.6,0-2.39.8-2.39,2.39v38.94c0,1.6.8,2.39,2.39,2.39Z"/>
            <path class="cls-14" d="m971.86,99.47l14.75-15.28,15.04,15.04c1.83,1.83,4.81,1.83,6.64,0,1.83-1.83,1.83-4.81,0-6.64l-18.42-18.42c-.89-.89-2.11-1.39-3.36-1.38-1.25.01-2.47.53-3.34,1.43l-18.07,18.72c-1.8,1.87-1.75,4.84.12,6.64,1.87,1.8,4.84,1.75,6.64-.12h0Z"/>
            <path class="cls-14" d="m971.86,77.39l14.75-15.28,15.04,15.04c1.83,1.83,4.81,1.83,6.64,0,1.83-1.83,1.83-4.81,0-6.64l-18.42-18.42c-.89-.89-2.11-1.39-3.36-1.38-1.25.01-2.47.53-3.34,1.43l-18.07,18.72c-1.8,1.87-1.75,4.84.12,6.64,1.87,1.8,4.84,1.75,6.64-.12h0Z"/>
          </g>
        </g>
      </g>
    </g>
  </g>
</svg>