<svg width="1282" height="873" viewBox="0 0 1282 873" fill="none" xmlns="http://www.w3.org/2000/svg">
<path d="M179.129 57.4434C154.882 57.4434 131.181 64.6332 111.021 78.1038C90.8605 91.5743 75.1476 110.721 65.8689 133.121C56.5902 155.522 54.1625 180.171 58.8927 203.951C63.623 227.732 75.2987 249.576 92.4434 266.72C109.588 283.865 131.432 295.541 155.212 300.271C178.993 305.001 203.642 302.574 226.043 293.295C248.443 284.016 267.59 268.303 281.06 248.143C294.531 227.983 301.72 204.281 301.72 180.035C301.72 147.522 288.805 116.34 265.814 93.3496C242.824 70.3592 211.642 57.4434 179.129 57.4434ZM179.129 237.186C167.807 237.186 156.739 233.828 147.326 227.538C137.912 221.247 130.576 212.306 126.244 201.845C121.913 191.384 120.781 179.874 122.992 168.77C125.203 157.666 130.657 147.467 138.665 139.463C146.673 131.46 156.875 126.01 167.98 123.805C179.085 121.6 190.595 122.738 201.053 127.074C211.512 131.411 220.449 138.752 226.735 148.169C233.021 157.585 236.373 168.655 236.367 179.977C236.352 195.144 230.314 209.685 219.58 220.402C208.847 231.119 194.297 237.135 179.129 237.128V237.186Z" fill="#C2AE86"/>
<path d="M202.683 62.5208H155.573L158.171 29.1875H200.086L202.683 62.5208Z" fill="#C2AE86"/>
<path d="M112.987 78.4017L79.6829 111.735L57.9375 86.3118L87.5638 56.6562L112.987 78.4017Z" fill="#C2AE86"/>
<path d="M60.8001 153.064V200.175L27.4668 197.577V155.662L60.8001 153.064Z" fill="#C2AE86"/>
<path d="M76.679 242.73L110.012 276.064L84.5891 297.809L54.9336 268.183L76.679 242.73Z" fill="#C2AE86"/>
<path d="M151.312 294.953H198.452L195.854 328.286H153.939L151.312 294.953Z" fill="#C2AE86"/>
<path d="M241.011 279.07L274.344 245.736L296.089 271.16L266.434 300.815L241.011 279.07Z" fill="#C2AE86"/>
<path d="M293.199 204.407V157.297L326.562 159.895V201.809L293.199 204.407Z" fill="#C2AE86"/>
<path d="M277.348 114.71L244.015 81.4056L269.438 59.6602L299.064 89.2865L277.348 114.71Z" fill="#C2AE86"/>
<path d="M187.272 150.058V207.384C187.249 208.814 186.662 210.177 185.64 211.177C184.618 212.177 183.243 212.734 181.813 212.726C181.11 212.733 180.412 212.601 179.76 212.335C179.108 212.069 178.516 211.676 178.019 211.179C177.521 210.681 177.128 210.089 176.862 209.437C176.597 208.786 176.464 208.088 176.472 207.384V159.573L172.59 161.792C171.783 162.318 170.838 162.593 169.875 162.58C168.71 162.561 167.581 162.169 166.654 161.462C165.727 160.754 165.051 159.769 164.725 158.65C164.399 157.531 164.439 156.337 164.841 155.242C165.242 154.148 165.984 153.211 166.956 152.568L178.924 145.475C178.924 145.475 179.216 145.475 179.303 145.271C179.391 145.067 179.595 145.096 179.799 144.979H180.354C180.487 144.939 180.629 144.939 180.763 144.979C180.983 144.921 181.214 144.921 181.434 144.979H182.514C182.514 144.979 182.806 144.979 182.893 144.979C183.1 144.983 183.302 145.044 183.477 145.154C183.477 145.154 183.769 145.154 183.857 145.154C183.944 145.154 184.265 145.446 184.44 145.446L184.849 145.738C184.849 145.738 185.141 145.913 185.228 146.03C185.316 146.147 185.52 146.322 185.608 146.409C185.735 146.51 185.835 146.64 185.9 146.789L186.308 147.197V147.373C186.308 147.373 186.308 147.577 186.308 147.664C186.308 147.752 186.513 147.956 186.513 148.161C186.513 148.365 186.513 148.54 186.717 148.657C186.709 148.812 186.709 148.968 186.717 149.124C186.697 149.249 186.704 149.376 186.74 149.497C186.775 149.619 186.837 149.73 186.921 149.824L187.272 150.058Z" fill="#C89B3C"/>
<path d="M298.074 50.0583C294.6 79.5678 275.628 85.0845 272.446 92.8486C270.829 97.7968 269.504 102.836 268.477 107.939H237.625C236.612 102.835 235.296 97.7961 233.684 92.8486C230.532 84.9677 211.559 79.5095 208.144 49.9707C205.897 30.5896 220.52 -0.0291676 253.153 2.08534e-05C285.786 0.0292093 300.234 30.6479 298.074 50.0583Z" fill="#C89B3C"/>
<path d="M237.332 60.6268L235.352 60.9941L244.456 110.069L246.436 109.702L237.332 60.6268Z" fill="white"/>
<path d="M268.88 60.7095L259.664 109.764L261.643 110.136L270.859 61.0814L268.88 60.7095Z" fill="white"/>
<path d="M253.093 77.2936C251.494 77.0254 249.991 76.3464 248.732 75.3231C247.474 74.2998 246.502 72.9673 245.913 71.4559C245.596 71.8496 245.203 72.1743 244.756 72.4102C244.309 72.6461 243.819 72.7882 243.315 72.8278C238.616 72.8278 236.748 63.1956 236.689 62.787L237.682 62.6118C238.149 65.1512 240.104 71.8062 243.315 71.8062C243.742 71.7478 244.152 71.6007 244.519 71.3745C244.886 71.1484 245.202 70.848 245.446 70.4927C244.076 67.768 243.3 64.7833 243.169 61.7362C243.169 58.9924 244.22 57.4455 246.088 57.4455C246.625 57.4251 247.157 57.5533 247.626 57.816C248.094 58.0786 248.481 58.4655 248.744 58.9341C250.175 61.4735 249.095 66.4355 247.285 69.6171C247.071 69.9673 246.867 70.2884 246.672 70.5803C248.306 73.7034 250.642 76.2137 253.152 76.2137C255.399 76.2137 257.413 74.1413 258.989 71.3976C257.058 69.0712 256.023 66.131 256.071 63.108C256.071 59.6054 257.384 57.4455 259.544 57.4455C261.295 57.4455 262.288 59.1676 262.288 62.1448C262.176 65.2905 261.421 68.3799 260.069 71.2224C260.857 71.975 261.899 72.4025 262.988 72.4192C265.907 72.4192 268.213 65.735 268.826 63.1372L269.789 63.4291C269.526 64.4507 266.87 73.4116 262.872 73.4116C261.618 73.3951 260.41 72.9408 259.456 72.1273C258.958 73.4807 258.104 74.6747 256.984 75.5838C255.864 76.493 254.52 77.0836 253.093 77.2936ZM259.369 58.5546C257.53 58.5546 256.888 61.0356 256.888 63.1956C256.869 65.8146 257.665 68.3747 259.165 70.5219C260.352 67.9146 261.007 65.0963 261.091 62.2324C261.091 61.1232 260.916 58.5546 259.369 58.5546ZM245.942 58.5546C244.395 58.5546 244.074 60.3643 244.074 61.8529C244.181 64.5545 244.837 67.206 246.001 69.6462L246.263 69.2376C247.927 66.3188 248.919 61.6778 247.723 59.547C247.551 59.2293 247.292 58.9672 246.977 58.7914C246.662 58.6156 246.303 58.5335 245.942 58.5546Z" fill="white"/>
<path d="M272.3 106.248H234.238V113.691H272.3V106.248Z" fill="#8B7852"/>
<path d="M272.069 115.272L234.007 115.232L233.999 122.675L272.061 122.715L272.069 115.272Z" fill="#8B7852"/>
<path d="M272.058 123.915L233.996 123.875L233.988 131.318L272.05 131.358L272.058 123.915Z" fill="#8B7852"/>
<path d="M381.522 427.175C352.515 427.158 324.154 435.744 300.027 451.847C275.9 467.949 257.091 490.846 245.979 517.64C234.866 544.434 231.95 573.922 237.598 602.373C243.246 630.825 257.206 656.962 277.711 677.48C298.216 697.997 324.345 711.972 352.793 717.637C381.241 723.303 410.731 720.404 437.532 709.307C464.332 698.211 487.24 679.415 503.357 655.298C519.474 631.181 528.077 602.825 528.077 573.818C528.038 534.953 512.588 497.69 485.115 470.2C457.641 442.71 420.387 427.237 381.522 427.175ZM381.522 689.23C358.685 689.247 336.356 682.491 317.359 669.815C298.363 657.14 283.553 639.115 274.803 618.02C266.053 596.926 263.756 573.711 268.203 551.311C272.65 528.911 283.641 508.333 299.785 492.181C315.929 476.029 336.501 465.028 358.898 460.57C381.296 456.112 404.513 458.397 425.611 467.136C446.71 475.875 464.742 490.676 477.427 509.666C490.112 528.656 496.88 550.981 496.874 573.818C496.878 588.971 493.898 603.975 488.103 617.975C482.308 631.976 473.812 644.697 463.1 655.414C452.389 666.131 439.671 674.634 425.674 680.436C411.677 686.238 396.674 689.226 381.522 689.23ZM381.522 427.175C352.515 427.158 324.154 435.744 300.027 451.847C275.9 467.949 257.091 490.846 245.979 517.64C234.866 544.434 231.95 573.922 237.598 602.373C243.246 630.825 257.206 656.962 277.711 677.48C298.216 697.997 324.345 711.972 352.793 717.637C381.241 723.303 410.731 720.404 437.532 709.307C464.332 698.211 487.24 679.415 503.357 655.298C519.474 631.181 528.077 602.825 528.077 573.818C528.038 534.953 512.588 497.69 485.115 470.2C457.641 442.71 420.387 427.237 381.522 427.175ZM381.522 689.23C358.685 689.247 336.356 682.491 317.359 669.815C298.363 657.14 283.553 639.115 274.803 618.02C266.053 596.926 263.756 573.711 268.203 551.311C272.65 528.911 283.641 508.333 299.785 492.181C315.929 476.029 336.501 465.028 358.898 460.57C381.296 456.112 404.513 458.397 425.611 467.136C446.71 475.875 464.742 490.676 477.427 509.666C490.112 528.656 496.88 550.981 496.874 573.818C496.878 588.971 493.898 603.975 488.103 617.975C482.308 631.976 473.812 644.697 463.1 655.414C452.389 666.131 439.671 674.634 425.674 680.436C411.677 686.238 396.674 689.226 381.522 689.23ZM381.522 326.621C332.635 326.61 284.843 341.095 244.189 368.246C203.536 395.397 171.847 433.994 153.129 479.155C134.412 524.316 129.507 574.014 139.035 621.963C148.563 669.912 172.096 713.958 206.658 748.532C241.22 783.107 285.258 806.655 333.204 816.2C381.149 825.745 430.849 820.858 476.017 802.157C521.185 783.455 559.792 751.78 586.958 711.136C614.123 670.492 628.626 622.705 628.631 573.818C628.631 508.273 602.599 445.41 556.26 399.054C509.92 352.698 447.067 326.644 381.522 326.621ZM381.522 734.501C349.721 734.536 318.625 725.135 292.169 707.489C265.713 689.843 245.087 664.745 232.902 635.372C220.716 605.999 217.519 573.67 223.714 542.479C229.91 511.288 245.22 482.635 267.706 460.149C290.193 437.662 318.845 422.352 350.036 416.157C381.227 409.961 413.556 413.159 442.929 425.344C472.302 437.53 497.4 458.156 515.046 484.612C532.692 511.068 542.093 542.164 542.058 573.964C541.966 616.513 525.022 657.292 494.936 687.379C464.849 717.465 424.07 734.408 381.522 734.501ZM381.522 427.175C352.515 427.158 324.154 435.744 300.027 451.847C275.9 467.949 257.091 490.846 245.979 517.64C234.866 544.434 231.95 573.922 237.598 602.373C243.246 630.825 257.206 656.962 277.711 677.48C298.216 697.997 324.345 711.972 352.793 717.637C381.241 723.303 410.731 720.404 437.532 709.307C464.332 698.211 487.24 679.415 503.357 655.298C519.474 631.181 528.077 602.825 528.077 573.818C528.038 534.953 512.588 497.69 485.115 470.2C457.641 442.71 420.387 427.237 381.522 427.175ZM381.522 689.23C358.685 689.247 336.356 682.491 317.359 669.815C298.363 657.14 283.553 639.115 274.803 618.02C266.053 596.926 263.756 573.711 268.203 551.311C272.65 528.911 283.641 508.333 299.785 492.181C315.929 476.029 336.501 465.028 358.898 460.57C381.296 456.112 404.513 458.397 425.611 467.136C446.71 475.875 464.742 490.676 477.427 509.666C490.112 528.656 496.88 550.981 496.874 573.818C496.878 588.971 493.898 603.975 488.103 617.975C482.308 631.976 473.812 644.697 463.1 655.414C452.389 666.131 439.671 674.634 425.674 680.436C411.677 686.238 396.674 689.226 381.522 689.23Z" fill="#C89B3C"/>
<path d="M410.507 331.114H353.91L359.544 274.635H404.873L410.507 331.114Z" fill="#C89B3C"/>
<path d="M285.262 349.126L236.254 377.409L212.903 325.687L252.133 303.008L285.262 349.126Z" fill="#C89B3C"/>
<path d="M185.814 427.321L157.501 476.329L111.412 443.2L134.062 403.971L185.814 427.321Z" fill="#C89B3C"/>
<path d="M138.792 544.775V601.372L82.2832 595.739V550.409L138.792 544.775Z" fill="#C89B3C"/>
<path d="M156.771 670.025L185.084 719.033L133.333 742.384L110.683 703.125L156.771 670.025Z" fill="#C89B3C"/>
<path d="M234.997 769.463L284.005 797.747L250.876 843.864L211.617 821.214L234.997 769.463Z" fill="#C89B3C"/>
<path d="M352.451 816.492H409.048L403.385 873.001H358.085L352.451 816.492Z" fill="#C89B3C"/>
<path d="M477.671 798.479L526.678 770.195L550.058 821.946L510.8 844.597L477.671 798.479Z" fill="#C89B3C"/>
<path d="M577.146 720.285L605.43 671.277L651.548 704.406L628.868 743.665L577.146 720.285Z" fill="#C89B3C"/>
<path d="M624.166 602.831V546.234L680.646 551.868V597.197L624.166 602.831Z" fill="#C89B3C"/>
<path d="M606.159 477.583L577.875 428.575L629.597 405.225L652.276 444.483L606.159 477.583Z" fill="#C89B3C"/>
<path d="M527.961 378.14L478.953 349.856L512.053 303.738L551.311 326.418L527.961 378.14Z" fill="#C89B3C"/>
<path d="M403.033 609.748C403.041 610.452 402.908 611.15 402.643 611.802C402.377 612.453 401.984 613.045 401.486 613.543C400.989 614.04 400.397 614.434 399.745 614.699C399.094 614.965 398.396 615.098 397.692 615.09H363.104C362.351 615.1 361.605 614.949 360.915 614.647C360.225 614.345 359.608 613.899 359.105 613.339C358.627 612.824 358.255 612.219 358.011 611.56C357.766 610.901 357.655 610.2 357.682 609.498C357.709 608.796 357.874 608.106 358.169 607.468C358.463 606.829 358.88 606.255 359.397 605.779L388.177 579.713C389.489 578.548 390.533 577.112 391.239 575.505C391.944 573.898 392.293 572.157 392.263 570.402C392.277 567.281 391.133 564.264 389.052 561.938C387.877 560.629 386.436 559.588 384.825 558.883C383.214 558.178 381.47 557.826 379.712 557.851C376.603 557.858 373.603 558.999 371.276 561.062L368.358 563.777C367.842 564.26 367.235 564.635 366.572 564.879C365.908 565.123 365.203 565.23 364.497 565.195C363.791 565.159 363.1 564.982 362.464 564.673C361.829 564.364 361.262 563.93 360.798 563.397C360.324 562.874 359.958 562.263 359.721 561.598C359.484 560.934 359.38 560.229 359.415 559.524C359.45 558.819 359.624 558.128 359.926 557.491C360.229 556.853 360.654 556.281 361.177 555.808L364.096 553.094C368.365 549.185 373.954 547.037 379.741 547.081C383.002 547.081 386.227 547.764 389.208 549.086C392.19 550.408 394.861 552.34 397.05 554.757C400.963 559.023 403.112 564.614 403.063 570.402C403.059 573.659 402.374 576.878 401.052 579.854C399.73 582.83 397.8 585.496 395.386 587.682L377.027 604.319H397.721C398.428 604.323 399.126 604.467 399.777 604.743C400.427 605.018 401.016 605.42 401.511 605.925C402.005 606.43 402.394 607.028 402.655 607.684C402.916 608.34 403.045 609.042 403.033 609.748Z" fill="#C89B3C"/>
<path d="M573.903 458.695L556.389 471.889L524.107 429.303L512.432 413.716C514.862 412.775 517.142 411.487 519.203 409.892C523.164 406.862 526.246 402.832 528.135 398.217L540.686 414.737L573.903 458.695Z" fill="#8B7852"/>
<path d="M539.579 358.405C533.853 350.955 526.046 345.371 517.147 342.357C508.247 339.343 498.654 339.035 489.579 341.472C480.505 343.909 472.357 348.982 466.164 356.049C459.972 363.116 456.014 371.86 454.79 381.176C453.567 390.492 455.132 399.962 459.29 408.388C463.447 416.815 470.009 423.82 478.146 428.518C486.283 433.215 495.631 435.395 505.007 434.782C514.383 434.169 523.367 430.789 530.823 425.071C534.594 422.156 537.918 418.705 540.688 414.826C546.548 406.534 549.602 396.585 549.402 386.433C549.202 376.282 545.76 366.46 539.579 358.405ZM519.147 409.893C517.086 411.488 514.805 412.776 512.375 413.717C505.719 416.344 498.314 416.348 491.655 413.728C484.995 411.107 479.579 406.057 476.498 399.598C473.418 393.139 472.903 385.751 475.058 378.927C477.213 372.103 481.877 366.351 488.109 362.833C494.34 359.314 501.675 358.291 508.631 359.97C515.587 361.65 521.648 365.906 525.588 371.88C529.528 377.854 531.054 385.1 529.859 392.156C528.663 399.211 524.835 405.551 519.147 409.893Z" fill="#8B7852"/>
<path d="M1193.98 284.673C1192.96 273.667 1188.69 263.212 1181.72 254.632C1174.75 246.052 1165.39 239.732 1154.83 236.469C1144.26 233.207 1132.97 233.15 1122.38 236.306C1111.78 239.461 1102.36 245.687 1095.3 254.196C1088.25 262.705 1083.87 273.116 1082.73 284.112C1081.59 295.107 1083.74 306.194 1088.9 315.97C1094.06 325.746 1102 333.772 1111.73 339.034C1121.45 344.296 1132.51 346.557 1143.52 345.531C1150.83 344.854 1157.94 342.741 1164.43 339.315C1170.92 335.889 1176.68 331.216 1181.37 325.564C1186.05 319.912 1189.58 313.391 1191.75 306.375C1193.91 299.358 1194.67 291.984 1193.98 284.673ZM1142.9 338.73C1133.24 339.636 1123.51 337.653 1114.97 333.033C1106.43 328.412 1099.45 321.362 1094.91 312.774C1090.38 304.186 1088.49 294.446 1089.49 284.786C1090.5 275.125 1094.34 265.979 1100.54 258.504C1106.74 251.029 1115.02 245.561 1124.33 242.792C1133.64 240.023 1143.56 240.077 1152.84 242.947C1162.11 245.817 1170.33 251.374 1176.45 258.916C1182.57 266.458 1186.32 275.645 1187.21 285.315C1188.41 298.273 1184.42 311.178 1176.11 321.193C1167.81 331.209 1155.86 337.517 1142.9 338.73ZM1193.98 284.673C1192.96 273.667 1188.69 263.212 1181.72 254.632C1174.75 246.052 1165.39 239.732 1154.83 236.469C1144.26 233.207 1132.97 233.15 1122.38 236.306C1111.78 239.461 1102.36 245.687 1095.3 254.196C1088.25 262.705 1083.87 273.116 1082.73 284.112C1081.59 295.107 1083.74 306.194 1088.9 315.97C1094.06 325.746 1102 333.772 1111.73 339.034C1121.45 344.296 1132.51 346.557 1143.52 345.531C1150.83 344.854 1157.94 342.741 1164.43 339.315C1170.92 335.889 1176.68 331.216 1181.37 325.564C1186.05 319.912 1189.58 313.391 1191.75 306.375C1193.91 299.358 1194.67 291.984 1193.98 284.673ZM1142.9 338.73C1133.24 339.636 1123.51 337.653 1114.97 333.033C1106.43 328.412 1099.45 321.362 1094.91 312.774C1090.38 304.186 1088.49 294.446 1089.49 284.786C1090.5 275.125 1094.34 265.979 1100.54 258.504C1106.74 251.029 1115.02 245.561 1124.33 242.792C1133.64 240.023 1143.56 240.077 1152.84 242.947C1162.11 245.817 1170.33 251.374 1176.45 258.916C1182.57 266.458 1186.32 275.645 1187.21 285.315C1188.41 298.273 1184.42 311.178 1176.11 321.193C1167.81 331.209 1155.86 337.517 1142.9 338.73ZM1193.98 284.673C1192.96 273.667 1188.69 263.212 1181.72 254.632C1174.75 246.052 1165.39 239.732 1154.83 236.469C1144.26 233.207 1132.97 233.15 1122.38 236.306C1111.78 239.461 1102.36 245.687 1095.3 254.196C1088.25 262.705 1083.87 273.116 1082.73 284.112C1081.59 295.107 1083.74 306.194 1088.9 315.97C1094.06 325.746 1102 333.772 1111.73 339.034C1121.45 344.296 1132.51 346.557 1143.52 345.531C1150.83 344.854 1157.94 342.741 1164.43 339.315C1170.92 335.889 1176.68 331.216 1181.37 325.564C1186.05 319.912 1189.58 313.391 1191.75 306.375C1193.91 299.358 1194.67 291.984 1193.98 284.673ZM1142.9 338.73C1133.24 339.636 1123.51 337.653 1114.97 333.033C1106.43 328.412 1099.45 321.362 1094.91 312.774C1090.38 304.186 1088.49 294.446 1089.49 284.786C1090.5 275.125 1094.34 265.979 1100.54 258.504C1106.74 251.029 1115.02 245.561 1124.33 242.792C1133.64 240.023 1143.56 240.077 1152.84 242.947C1162.11 245.817 1170.33 251.374 1176.45 258.916C1182.57 266.458 1186.32 275.645 1187.21 285.315C1188.41 298.273 1184.42 311.178 1176.11 321.193C1167.81 331.209 1155.86 337.517 1142.9 338.73ZM1255.66 278.952C1253.5 255.747 1244.5 233.704 1229.82 215.611C1215.13 197.517 1195.4 184.186 1173.13 177.303C1150.87 170.42 1127.06 170.294 1104.72 176.942C1082.39 183.589 1062.52 196.711 1047.64 214.649C1032.76 232.586 1023.54 254.533 1021.13 277.714C1018.72 300.895 1023.25 324.269 1034.12 344.88C1045 365.491 1061.75 382.414 1082.24 393.508C1102.74 404.602 1126.06 409.369 1149.27 407.206C1180.38 404.299 1209.07 389.156 1229.02 365.105C1248.97 341.055 1258.55 310.066 1255.66 278.952ZM1144.34 354.171C1131.61 355.352 1118.81 352.733 1107.58 346.643C1096.34 340.553 1087.16 331.267 1081.2 319.959C1075.23 308.651 1072.76 295.83 1074.09 283.116C1075.41 270.403 1080.48 258.368 1088.65 248.535C1096.82 238.701 1107.72 231.511 1119.97 227.873C1132.23 224.235 1145.28 224.313 1157.49 228.097C1169.7 231.881 1180.52 239.202 1188.56 249.132C1196.61 259.062 1201.54 271.156 1202.71 283.885C1204.27 300.942 1199 317.922 1188.06 331.098C1177.11 344.275 1161.39 352.572 1144.34 354.171ZM1133.19 234.206C1122.17 235.218 1111.7 239.476 1103.1 246.44C1094.5 253.405 1088.16 262.763 1084.89 273.33C1081.61 283.898 1081.54 295.201 1084.69 305.808C1087.84 316.415 1094.06 325.85 1102.57 332.919C1111.08 339.988 1121.5 344.374 1132.5 345.521C1143.51 346.668 1154.61 344.525 1164.39 339.363C1174.18 334.201 1182.21 326.252 1187.48 316.522C1192.75 306.792 1195.01 295.719 1193.98 284.702C1192.62 269.945 1185.44 256.335 1174.04 246.865C1162.64 237.396 1147.94 232.843 1133.19 234.206ZM1142.9 338.759C1133.24 339.665 1123.51 337.682 1114.97 333.062C1106.43 328.441 1099.45 321.391 1094.91 312.803C1090.38 304.215 1088.49 294.475 1089.49 284.815C1090.5 275.155 1094.34 266.009 1100.54 258.534C1106.74 251.059 1115.02 245.591 1124.33 242.821C1133.64 240.052 1143.56 240.106 1152.84 242.976C1162.11 245.846 1170.33 251.403 1176.45 258.945C1182.57 266.487 1186.32 275.674 1187.21 285.344C1188.41 298.297 1184.41 311.194 1176.1 321.204C1167.8 331.213 1155.86 337.517 1142.9 338.73V338.759ZM1193.98 284.702C1192.96 273.696 1188.69 263.242 1181.72 254.661C1174.75 246.081 1165.39 239.761 1154.83 236.499C1144.26 233.237 1132.97 233.18 1122.38 236.335C1111.78 239.49 1102.36 245.716 1095.3 254.225C1088.25 262.735 1083.87 273.145 1082.73 284.141C1081.59 295.136 1083.74 306.223 1088.9 315.999C1094.06 325.775 1102 333.801 1111.73 339.063C1121.45 344.325 1132.51 346.586 1143.52 345.56C1150.83 344.883 1157.94 342.77 1164.44 339.342C1170.93 335.914 1176.69 331.238 1181.38 325.583C1186.07 319.927 1189.59 313.403 1191.76 306.383C1193.92 299.364 1194.68 291.986 1193.98 284.673V284.702ZM1142.9 338.759C1133.24 339.665 1123.51 337.682 1114.97 333.062C1106.43 328.441 1099.45 321.391 1094.91 312.803C1090.38 304.215 1088.49 294.475 1089.49 284.815C1090.5 275.155 1094.34 266.009 1100.54 258.534C1106.74 251.059 1115.02 245.591 1124.33 242.821C1133.64 240.052 1143.56 240.106 1152.84 242.976C1162.11 245.846 1170.33 251.403 1176.45 258.945C1182.57 266.487 1186.32 275.674 1187.21 285.344C1188.41 298.297 1184.41 311.194 1176.1 321.204C1167.8 331.213 1155.86 337.517 1142.9 338.73V338.759ZM1193.98 284.702C1192.96 273.696 1188.69 263.242 1181.72 254.661C1174.75 246.081 1165.39 239.761 1154.83 236.499C1144.26 233.237 1132.97 233.18 1122.38 236.335C1111.78 239.49 1102.36 245.716 1095.3 254.225C1088.25 262.735 1083.87 273.145 1082.73 284.141C1081.59 295.136 1083.74 306.223 1088.9 315.999C1094.06 325.775 1102 333.801 1111.73 339.063C1121.45 344.325 1132.51 346.586 1143.52 345.56C1150.83 344.883 1157.94 342.77 1164.44 339.342C1170.93 335.914 1176.69 331.238 1181.38 325.583C1186.07 319.927 1189.59 313.403 1191.76 306.383C1193.92 299.364 1194.68 291.986 1193.98 284.673V284.702ZM1142.9 338.759C1133.24 339.665 1123.51 337.682 1114.97 333.062C1106.43 328.441 1099.45 321.391 1094.91 312.803C1090.38 304.215 1088.49 294.475 1089.49 284.815C1090.5 275.155 1094.34 266.009 1100.54 258.534C1106.74 251.059 1115.02 245.591 1124.33 242.821C1133.64 240.052 1143.56 240.106 1152.84 242.976C1162.11 245.846 1170.33 251.403 1176.45 258.945C1182.57 266.487 1186.32 275.674 1187.21 285.344C1188.41 298.297 1184.41 311.194 1176.1 321.204C1167.8 331.213 1155.86 337.517 1142.9 338.73V338.759Z" fill="#C89B3C"/>
<path d="M1150.43 175.275L1105.31 179.478L1104.84 147.312L1144.97 143.576L1150.43 175.275Z" fill="#C89B3C"/>
<path d="M1065.96 198.482L1037.04 233.333L1013.95 210.945L1039.69 179.918L1065.96 198.482Z" fill="#C89B3C"/>
<path d="M1022.65 274.605L1026.82 319.702L994.657 320.198L990.921 280.064L1022.65 274.605Z" fill="#C89B3C"/>
<path d="M1045.82 359.076L1080.67 388.002L1058.26 411.09L1027.26 385.346L1045.82 359.076Z" fill="#C89B3C"/>
<path d="M1121.95 402.391L1167.07 398.217L1167.54 430.383L1127.41 434.119L1121.95 402.391Z" fill="#C89B3C"/>
<path d="M1206.42 379.218L1235.35 344.338L1258.43 366.755L1232.69 397.782L1206.42 379.218Z" fill="#C89B3C"/>
<path d="M1249.74 303.096L1245.56 257.971L1277.73 257.504L1281.46 297.638L1249.74 303.096Z" fill="#C89B3C"/>
<path d="M1226.56 218.623L1191.68 189.697L1214.09 166.609L1245.12 192.354L1226.56 218.623Z" fill="#C89B3C"/>
<path d="M1162.23 302.952C1162.23 303.66 1162.09 304.362 1161.81 305.016C1161.54 305.67 1161.14 306.263 1160.63 306.76C1160.13 307.257 1159.53 307.649 1158.87 307.912C1158.21 308.175 1157.51 308.305 1156.8 308.293H1155.84V315.678C1155.74 317.03 1155.13 318.294 1154.13 319.217C1153.14 320.14 1151.84 320.653 1150.48 320.653C1149.12 320.653 1147.82 320.14 1146.82 319.217C1145.83 318.294 1145.22 317.03 1145.12 315.678V308.293H1114.59C1113.38 308.336 1112.19 307.919 1111.26 307.126C1110.7 306.7 1110.23 306.165 1109.88 305.553C1109.53 304.94 1109.31 304.263 1109.22 303.562C1109.14 302.861 1109.2 302.151 1109.4 301.474C1109.6 300.797 1109.94 300.168 1110.39 299.624L1146.35 254.937C1146.35 254.937 1146.35 254.937 1146.55 254.732C1146.68 254.63 1146.78 254.5 1146.85 254.353C1147.03 254.285 1147.19 254.186 1147.34 254.061L1147.72 253.769C1147.93 253.769 1148.01 253.565 1148.3 253.565C1148.33 253.484 1148.38 253.414 1148.45 253.362C1148.52 253.31 1148.6 253.279 1148.68 253.273C1148.87 253.189 1149.07 253.131 1149.27 253.098C1149.4 253.15 1149.55 253.15 1149.68 253.098H1151.31C1151.47 253.151 1151.65 253.151 1151.81 253.098C1151.81 253.098 1152.19 253.098 1152.39 253.273H1152.77L1153.27 253.652L1153.73 253.944C1153.73 253.944 1154.03 253.944 1154.03 254.148C1154.14 254.282 1154.27 254.409 1154.41 254.528L1154.7 254.907C1154.84 255.061 1154.97 255.227 1155.08 255.404C1155.11 255.546 1155.18 255.677 1155.28 255.783C1155.28 255.987 1155.28 256.075 1155.49 256.367C1155.69 256.659 1155.49 256.659 1155.49 256.775C1155.54 256.967 1155.54 257.168 1155.49 257.359C1155.49 257.534 1155.49 257.651 1155.49 257.826V297.377H1156.45C1157.2 297.328 1157.96 297.436 1158.67 297.697C1159.38 297.957 1160.03 298.362 1160.57 298.887C1161.11 299.412 1161.54 300.044 1161.83 300.744C1162.11 301.444 1162.25 302.196 1162.23 302.952ZM1145.12 273.588L1125.8 297.581H1145.12V273.588Z" fill="#C89B3C"/>
<path d="M1250.61 175.098C1250.61 175.098 1258.72 161.759 1246.93 155.892C1235.14 150.026 1229.8 164.649 1229.8 164.649L1250.61 175.098Z" fill="#DD6A57"/>
<path d="M1182.72 263.366L1203.53 273.699L1250.87 174.546L1230.06 164.213L1182.72 263.366Z" fill="#C2AE86"/>
<path d="M1226.7 166.753L1250.99 178.837L1252.88 174.897L1228.6 162.812L1226.7 166.753Z" fill="#8B7852"/>
<path d="M1224.63 171.13L1248.92 183.185L1250.81 179.244L1226.5 167.189L1224.63 171.13Z" fill="#8B7852"/>
<path d="M1182.72 263.399L1184.7 279.54L1185.32 284.853L1189.87 282.109L1203.53 273.732L1202.62 270.229L1199.38 271.689L1198.45 268.157L1195.21 269.616L1194.33 266.114L1191.04 267.544L1190.16 264.041L1186.89 265.471L1185.99 261.969L1182.72 263.399Z" fill="white"/>
<path d="M1184.7 279.508L1185.32 284.82L1189.87 282.076L1184.7 279.508Z" fill="#37474F"/>
<path d="M1191.36 260.127C1194.28 253.093 1197.2 246.146 1200.29 239.228C1203.38 232.31 1206.62 225.51 1209.8 218.621C1212.99 211.733 1216.4 205.019 1219.85 198.189C1223.29 191.359 1226.76 184.704 1230.5 178.107C1227.58 185.171 1224.66 192.089 1221.57 199.006C1218.47 205.924 1215.23 212.754 1212.05 219.613C1208.87 226.473 1205.46 233.244 1202.01 240.045C1198.57 246.846 1195.09 253.53 1191.36 260.127Z" fill="#8B7852"/>
<path d="M1200.79 264.655C1203.7 257.591 1206.62 250.673 1209.69 243.756C1212.75 236.838 1216.05 230.008 1219.2 223.149C1222.36 216.289 1225.83 209.517 1229.24 202.717C1232.66 195.916 1236.16 189.261 1239.9 182.664C1237.12 189.698 1234.06 196.645 1231 203.563C1227.93 210.481 1224.63 217.282 1221.45 224.17C1218.27 231.059 1214.85 237.772 1211.41 244.602C1207.97 251.432 1204.49 258.029 1200.79 264.655Z" fill="#8B7852"/>
<path d="M832.923 203.617C801.887 203.611 771.545 212.81 745.737 230.048C719.928 247.287 699.811 271.792 687.93 300.465C676.048 329.137 672.937 360.689 678.988 391.13C685.04 421.571 699.982 449.533 721.926 471.482C743.871 493.43 771.83 508.378 802.27 514.435C832.71 520.492 864.262 517.386 892.937 505.51C921.612 493.634 946.12 473.522 963.364 447.716C980.608 421.911 989.811 391.571 989.811 360.535C989.811 318.923 973.283 279.014 943.862 249.588C914.44 220.161 874.535 203.625 832.923 203.617ZM832.923 433.798C818.425 433.803 804.25 429.509 792.193 421.458C780.136 413.407 770.737 401.96 765.186 388.567C759.635 375.173 758.182 360.434 761.009 346.214C763.836 331.994 770.817 318.932 781.069 308.68C791.32 298.428 804.383 291.447 818.603 288.62C832.823 285.793 847.562 287.247 860.955 292.798C874.349 298.349 885.795 307.747 893.846 319.805C901.898 331.862 906.192 346.036 906.186 360.535C906.179 379.963 898.457 398.593 884.719 412.331C870.982 426.069 852.351 433.79 832.923 433.798Z" fill="#C2AE86"/>
<path d="M863.072 210.127H802.739L806.096 167.424H859.744L863.072 210.127Z" fill="#C2AE86"/>
<path d="M748.248 230.471L705.574 273.115L677.729 240.57L715.674 202.625L748.248 230.471Z" fill="#C2AE86"/>
<path d="M681.406 326.033V386.366L638.703 383.038V329.361L681.406 326.033Z" fill="#C2AE86"/>
<path d="M701.749 440.895L744.394 483.539L711.848 511.385L673.903 473.44L701.749 440.895Z" fill="#C2AE86"/>
<path d="M797.313 507.705H857.646L854.319 550.408H800.641L797.313 507.705Z" fill="#C2AE86"/>
<path d="M912.17 487.386L954.814 444.713L982.66 477.287L944.715 515.232L912.17 487.386Z" fill="#C2AE86"/>
<path d="M978.983 391.797V331.465L1021.69 334.792V388.47L978.983 391.797Z" fill="#C2AE86"/>
<path d="M958.669 276.969L915.995 234.295L948.569 206.449L986.515 244.394L958.669 276.969Z" fill="#C2AE86"/>
<path d="M846.844 358.232C849.1 360.446 850.891 363.09 852.109 366.008C853.327 368.925 853.949 372.058 853.936 375.219C853.945 379.998 852.535 384.671 849.885 388.648C847.235 392.624 843.464 395.725 839.05 397.557C834.637 399.388 829.779 399.869 825.092 398.937C820.405 398.006 816.1 395.704 812.722 392.324C811.693 391.294 811.114 389.898 811.114 388.442C811.114 386.986 811.693 385.589 812.722 384.56C813.752 383.53 815.148 382.952 816.604 382.952C818.06 382.952 819.457 383.53 820.486 384.56C821.703 385.77 823.147 386.727 824.735 387.379C826.323 388.03 828.023 388.361 829.739 388.354C833.218 388.346 836.557 386.985 839.05 384.56C840.288 383.341 841.269 381.886 841.936 380.282C842.602 378.678 842.941 376.956 842.932 375.219C842.949 373.498 842.613 371.792 841.945 370.206C841.278 368.62 840.293 367.187 839.05 365.996C837.849 364.767 836.414 363.791 834.83 363.124C833.246 362.457 831.545 362.114 829.827 362.114C829.07 362.153 828.314 362.015 827.62 361.711C826.926 361.407 826.312 360.945 825.828 360.362C824.784 359.353 824.178 357.974 824.14 356.522C824.101 355.07 824.634 353.661 825.624 352.598L835.548 342.499H819.786C818.331 342.499 816.935 341.921 815.906 340.892C814.877 339.863 814.298 338.467 814.298 337.012C814.298 335.556 814.877 334.16 815.906 333.131C816.935 332.102 818.331 331.524 819.786 331.524H848.449C849.171 331.513 849.887 331.644 850.558 331.911C851.228 332.179 851.839 332.576 852.355 333.081C852.871 333.586 853.281 334.188 853.563 334.853C853.844 335.518 853.991 336.231 853.995 336.953C853.971 337.872 853.731 338.772 853.294 339.58C853.024 340.071 852.701 340.531 852.331 340.952L840.101 353.561C842.616 354.691 844.902 356.275 846.844 358.232Z" fill="#C89B3C"/>
<path d="M938.205 244.601C948.28 244.601 956.448 236.433 956.448 226.358C956.448 216.283 948.28 208.115 938.205 208.115C928.129 208.115 919.962 216.283 919.962 226.358C919.962 236.433 928.129 244.601 938.205 244.601Z" fill="#C89B3C"/>
<path d="M957.528 241.797H918.854V247.372H957.528V241.797Z" fill="#C89B3C"/>
<path opacity="0.1" d="M957.528 241.797H918.854V247.372H957.528V241.797Z" fill="black"/>
<path d="M977.376 318.566H899.034V324.141H977.376V318.566Z" fill="#C89B3C"/>
<path opacity="0.1" d="M977.376 318.566H899.034V324.141H977.376V318.566Z" fill="black"/>
<path d="M977.376 334.209H899.034V339.784H977.376V334.209Z" fill="#C89B3C"/>
<path opacity="0.1" d="M977.376 334.209H899.034V339.784H977.376V334.209Z" fill="black"/>
<path d="M974.458 324.141H901.954V334.211H974.458V324.141Z" fill="#C89B3C"/>
<path d="M953.966 247.371H922.413V252.946H953.966V247.371Z" fill="#C89B3C"/>
<path d="M970.255 318.563H906.04C906.04 318.563 920.634 303.969 923.699 286.456C926.268 271.686 927.494 252.947 927.494 252.947H948.655C948.655 252.947 949.91 271.686 952.479 286.456C955.631 303.94 970.255 318.563 970.255 318.563Z" fill="#C89B3C"/>
<path d="M66.7221 51.7211L65 49.3276C68.0648 47.1385 69.8745 46.0585 69.962 46.0293L71.4507 48.5395C69.82 49.5167 68.2417 50.5787 66.7221 51.7211Z" fill="#8B7852"/>
<path d="M831.463 556.069C827.494 556.069 823.553 555.894 819.788 555.661L819.963 552.742C823.728 552.976 827.64 553.092 831.638 553.151L831.463 556.069ZM843.139 555.836L842.993 552.917C846.875 552.742 850.757 552.421 854.464 551.954L854.814 554.873C851.195 555.281 847.283 555.632 843.314 555.836H843.139ZM807.967 554.668C804.055 554.231 800.173 553.676 796.291 553.034L796.787 550.115C800.553 550.757 804.376 551.312 808.258 551.75L807.967 554.668ZM866.344 553.034L865.76 550.115C869.583 549.356 873.349 548.422 876.939 547.371L877.756 550.29C874.312 551.312 870.488 552.362 866.489 553.034H866.344ZM784.82 550.699C780.967 549.765 777.173 548.743 773.495 547.576L774.341 544.657C777.961 545.766 781.726 546.788 785.491 547.576L784.82 550.699ZM889.081 546.525L888.001 543.81C891.55 542.395 895.019 540.787 898.392 538.994L899.764 541.592C896.32 543.285 892.759 544.919 889.081 546.525ZM762.637 543.606C758.988 542.176 755.369 540.687 751.866 538.936L753.121 536.309C756.566 537.943 760.127 539.49 763.688 540.891L762.637 543.606ZM909.864 535.346L908.229 532.923C911.416 530.794 914.485 528.495 917.423 526.034L919.292 528.282C916.272 530.834 913.126 533.23 909.864 535.462V535.346ZM741.446 533.507C738.06 531.58 734.704 529.508 731.434 527.319L733.069 524.896C736.25 527.027 739.578 529.07 742.876 530.967L741.446 533.507ZM721.89 520.46C718.971 518.124 715.789 515.614 712.841 513.016L714.739 510.827C717.657 513.367 720.576 515.848 723.67 518.154L721.89 520.46ZM927.96 520.314L925.888 518.27C928.515 515.614 931.113 512.725 933.594 509.718L935.841 511.557C933.302 514.768 930.704 517.716 927.96 520.43V520.314ZM704.231 505.048C701.516 502.363 698.772 499.531 696.058 496.613L698.189 494.628C700.874 497.547 703.589 500.465 706.274 502.946L704.231 505.048ZM942.934 502.129L940.541 500.465C942.701 497.371 944.802 494.102 946.816 490.746L949.326 492.234C947.254 495.824 945.123 499.152 942.934 502.304V502.129ZM688.265 487.739C685.842 484.82 683.361 481.902 680.88 478.632L683.157 476.823C685.638 479.975 688.119 483.011 690.512 485.842L688.265 487.739ZM955.018 481.901L952.45 480.559C954.143 477.261 955.865 473.758 957.499 470.139L960.155 471.335C958.492 475.247 956.77 478.808 955.018 482.135V481.901ZM673.845 469.496C671.54 466.373 669.263 463.192 666.986 460.01L669.38 458.317C671.627 461.499 673.904 464.651 676.181 467.774L673.845 469.496ZM964.884 460.74L962.199 459.631C963.6 456.157 965.117 452.509 966.373 448.773L969.116 449.794C967.657 453.618 966.227 457.296 964.796 460.798L964.884 460.74ZM660.302 450.32C658.113 447.109 655.953 443.898 653.764 440.629L656.216 439.024C658.376 442.264 660.536 445.474 662.725 448.685L660.302 450.32ZM972.969 438.644L970.196 437.739C971.422 434.062 972.59 430.384 973.757 426.619L976.53 427.494C975.304 431.376 974.107 435.083 972.882 438.761L972.969 438.644ZM647.313 430.851L640.833 421.073L643.285 419.467L649.736 429.245L647.313 430.851ZM979.858 416.257L976.939 415.439C978.019 411.732 979.04 407.996 980.091 404.202L983.01 404.961C981.94 408.833 980.86 412.637 979.77 416.373L979.858 416.257ZM634.353 411.353C632.164 408.142 629.975 404.902 627.757 401.721L630.15 400.057C632.369 403.268 634.587 406.478 636.747 409.718L634.353 411.353ZM986.016 393.636L983.098 392.906C984.051 389.17 985.024 385.404 986.016 381.61L988.935 382.31C987.855 386.222 986.892 390.016 985.929 393.752L986.016 393.636ZM621.16 392.176C618.884 389.024 616.578 385.871 614.243 382.777L616.578 381.026C618.942 384.149 621.248 387.302 623.525 390.454L621.16 392.176ZM607.091 373.583C604.64 370.489 602.129 367.483 599.678 364.622L601.896 362.725C604.377 365.644 606.887 368.563 609.397 371.773L607.091 373.583ZM991.854 370.956L988.935 370.256L991.854 358.901L994.773 359.602L991.854 370.956ZM591.972 355.924C589.316 353.005 586.572 350.261 583.887 347.576L585.93 345.504C588.673 348.189 591.417 351.05 594.103 353.939L591.972 355.924ZM997.487 348.306L994.569 347.576C995.503 343.811 996.466 340.045 997.487 336.251L1000.41 336.981C999.151 340.863 998.188 344.628 997.254 348.423L997.487 348.306ZM153.94 341.242C150.029 341.242 146.059 340.95 142.265 340.6L142.527 337.681C146.351 338.002 150.233 338.236 154.203 338.294L153.94 341.242ZM165.615 341.038V338.119C169.439 337.886 173.321 337.535 177.116 337.039L177.495 339.958C173.438 340.571 169.468 340.921 165.557 341.155L165.615 341.038ZM575.276 339.637C572.357 337.039 569.438 334.529 566.519 332.135L568.358 329.859C571.277 332.281 574.371 334.85 577.29 337.477L575.276 339.637ZM130.327 339.287C126.474 338.644 122.592 337.856 118.651 336.951L119.323 334.033C123.029 334.937 126.853 335.696 130.648 336.309L130.327 339.287ZM188.908 338.148L188.324 335.229C192.089 334.441 195.855 333.507 199.562 332.311L200.35 335.229C196.614 336.368 192.761 337.302 188.908 338.119V338.148ZM107.414 333.857C103.678 332.661 99.9414 331.347 96.322 329.917L97.402 327.203C100.934 328.604 104.612 329.917 108.289 331.055L107.414 333.857ZM211.558 331.902L210.683 328.983L221.833 325.48L222.708 328.253C219.03 329.567 215.294 330.734 211.558 331.873V331.902ZM1003.03 325.801L1000.11 325.043C1001.11 321.277 1002.13 317.483 1003.18 313.717L1006.1 314.506C1005.05 318.212 1004.03 322.007 1003.03 325.772V325.801ZM557.092 325.247C553.968 322.999 550.758 320.81 547.518 318.767L549.065 316.315C552.363 318.388 555.632 320.606 558.814 322.883L557.092 325.247ZM85.4639 325.247C81.9321 323.525 78.4295 321.686 75.0436 319.759L76.503 317.22C79.8013 319.117 83.2456 320.927 86.719 322.591L85.4639 325.247ZM233.771 324.867L232.895 322.095L243.987 318.504L244.891 321.277L233.771 324.867ZM255.983 317.658L255.078 314.885L266.199 311.266L267.104 314.184L255.983 317.658ZM65.032 313.513C61.792 311.295 58.6105 308.96 55.5457 306.537L57.3554 304.231C60.2742 306.625 63.485 308.931 66.6957 311.09L65.032 313.513ZM537.564 312.929C534.208 311.09 530.734 309.31 527.29 307.646L528.545 305.019C532.048 306.683 535.55 308.493 538.965 310.39L537.564 312.929ZM278.195 310.478L277.32 307.559L288.557 304.26L289.433 307.179L278.195 310.478ZM300.495 303.56L299.649 300.641C303.414 299.503 307.15 298.423 310.887 297.372L311.675 300.291L300.495 303.56ZM1009.19 303.297L1006.27 302.48C1007.35 298.744 1008.49 294.978 1009.63 291.271L1012.55 292.147C1011.44 295.767 1010.33 299.503 1009.25 303.239L1009.19 303.297ZM516.695 302.947C513.484 301.633 510.186 300.407 506.887 299.24L505.866 298.89L506.829 296.117L507.588 296.379C511.207 297.664 514.564 298.919 517.804 300.262L516.695 302.947ZM46.76 298.831C43.8411 296.146 41.0974 293.344 38.4704 290.454L40.6304 288.499C43.199 291.417 45.9427 294.074 48.7448 296.701L46.76 298.831ZM323.058 297.226L322.329 294.307C326.123 293.315 329.888 292.351 333.683 291.388L334.354 294.307C330.53 295.212 326.765 296.175 322.971 297.168L323.058 297.226ZM494.949 295.299C491.242 294.161 487.477 293.11 483.77 292.147L484.5 289.228C488.236 290.221 492.03 291.271 495.796 292.41L494.949 295.299ZM345.708 291.738L345.096 288.82C348.919 288.002 352.743 287.214 356.567 286.485L357.121 289.403C353.239 290.075 349.415 290.863 345.621 291.68L345.708 291.738ZM472.474 289.462C468.709 288.674 464.856 287.915 461.061 287.273L461.558 284.354C465.41 285.025 469.263 285.755 473.087 286.601L472.474 289.462ZM368.592 287.419L368.125 284.5C372.036 283.887 375.948 283.332 379.801 282.865L380.151 285.784C376.123 286.193 372.358 286.747 368.505 287.36L368.592 287.419ZM449.59 285.58C445.737 285.084 441.855 284.675 437.915 284.383L438.148 281.464C442.03 281.785 445.942 282.194 449.824 282.661L449.59 285.58ZM391.651 284.587L391.388 281.668C395.3 281.347 399.24 281.085 403.064 280.91V283.828C399.474 283.828 395.446 284.208 391.564 284.529L391.651 284.587ZM426.444 283.682C423.058 283.566 419.701 283.507 416.374 283.507H414.827V280.588H416.374C419.73 280.588 423.146 280.588 426.561 280.764L426.444 283.682ZM30.8522 281.435C28.4588 278.341 26.1529 275.101 24.0221 271.832L26.474 270.227C28.5463 273.437 30.823 276.619 33.1581 279.654L30.8522 281.435ZM1016.26 281.026L1013.48 280.121C1014.71 276.385 1015.99 272.708 1017.31 269.03L1020.05 270.022C1018.65 273.612 1017.39 277.29 1016.17 280.91L1016.26 281.026ZM18.0093 261.674C16.1412 258.23 14.4191 254.669 12.8721 251.079L15.5283 249.911C17.0753 253.443 18.7682 256.917 20.5779 260.303L18.0093 261.674ZM1024.11 259.077L1021.39 258.026C1022.82 254.348 1024.31 250.758 1025.83 247.168L1028.51 248.335C1027.03 251.867 1025.51 255.457 1024.11 259.077ZM8.52304 240.046C7.26794 236.368 6.15877 232.573 5.19555 228.75L8.1144 228.049C9.04843 231.785 10.1576 235.492 11.3835 239.112L8.52304 240.046ZM1033.27 237.769L1030.65 236.514C1032.37 232.895 1034.12 229.363 1035.9 226.006L1038.47 227.378C1036.75 230.647 1034.99 234.208 1033.27 237.74V237.769ZM1044.1 217.337L1041.59 215.878C1043.58 212.463 1045.68 209.106 1047.78 205.866L1050.23 207.471C1048.13 210.507 1046.09 213.776 1044.1 217.191V217.337ZM2.80209 217.337C2.45183 215.235 2.13076 213.134 1.86806 211.003C1.60537 208.872 1.43024 207.413 1.25511 205.662L4.17395 205.37C4.34909 207.121 4.55341 208.872 4.75773 210.653C4.96205 212.433 5.31231 214.798 5.66257 216.841L2.80209 217.337ZM1056.86 197.956L1054.49 196.234C1056.83 193.081 1059.28 189.958 1061.73 187.039L1063.98 188.907C1061.56 191.651 1059.13 194.716 1056.86 197.81V197.956ZM0.233513 193.928C0.0875708 190.659 0 187.36 0 184.121V182.194H2.91885V184.121C2.91885 187.331 2.91885 190.571 3.15236 193.811L0.233513 193.928ZM1071.45 180.268L1069.35 178.254C1072.06 175.335 1074.87 172.62 1077.7 170.023L1079.68 172.182C1077.11 174.605 1074.34 177.32 1071.66 180.122L1071.45 180.268ZM3.5318 170.49L0.612956 170.285C0.875652 166.374 1.2843 162.433 1.7805 158.61L4.69935 158.989C4.20314 162.755 3.82369 166.637 3.5318 170.49ZM1088.64 164.652L1086.8 162.375C1089.72 159.952 1093.02 157.588 1096.23 155.37L1097.9 157.763C1094.74 159.807 1091.62 162.112 1088.64 164.506V164.652ZM1107.62 151.517L1106.1 149.007C1109.45 147.022 1112.93 145.125 1116.43 143.373L1117.74 145.971C1114.3 147.547 1110.88 149.561 1107.62 151.371V151.517ZM6.62579 147.547L3.70694 146.964C4.49503 143.111 5.42906 139.258 6.45065 135.522L9.3695 136.31C8.34791 139.988 7.41388 143.724 6.62579 147.547ZM12.7846 125.247L10.0408 124.284C11.3543 120.606 12.9597 116.929 14.3607 113.338L17.1045 114.535C15.4991 118.009 14.1856 121.628 12.7846 125.247ZM22.0665 104.086L19.4687 102.86C21.3076 99.3864 23.2632 95.9713 25.3064 92.6438L27.7874 94.1908C25.861 97.2848 23.847 100.671 22.0665 104.086ZM34.2965 84.471L31.9322 82.7489C34.2381 79.5674 36.6899 76.4734 39.2293 73.467L41.4477 75.3642C38.9666 78.2831 36.5732 81.3479 34.2965 84.471ZM49.2118 66.812L47.1394 64.7688C49.9123 61.85 52.802 59.223 55.7208 56.6836L57.6473 58.9019C54.8452 61.3829 52.1306 64.0391 49.2118 66.812Z" fill="#8B7852"/>
<path d="M1129.51 140.394L1128.37 137.709C1130.18 136.95 1131.99 136.22 1133.86 135.52L1134.91 138.263C1133.07 138.935 1131.29 139.664 1129.51 140.394Z" fill="#8B7852"/>
<path d="M79.7416 69.2956C91.8902 64.2933 97.6833 50.3898 92.681 38.2413C87.6787 26.0928 73.7752 20.2996 61.6267 25.3019C49.4782 30.3042 43.685 44.2077 48.6873 56.3562C53.6896 68.5047 67.5931 74.2979 79.7416 69.2956Z" fill="#8B7852"/>
<path d="M487.446 313.837C500.584 313.837 511.234 303.186 511.234 290.048C511.234 276.91 500.584 266.26 487.446 266.26C474.308 266.26 463.657 276.91 463.657 290.048C463.657 303.186 474.308 313.837 487.446 313.837Z" fill="#8B7852"/>
<path d="M1134.38 160.683C1147.52 160.683 1158.17 150.032 1158.17 136.894C1158.17 123.756 1147.52 113.105 1134.38 113.105C1121.24 113.105 1110.59 123.756 1110.59 136.894C1110.59 150.032 1121.24 160.683 1134.38 160.683Z" fill="#8B7852"/>
<path d="M833.975 583.099C847.113 583.099 857.764 572.448 857.764 559.31C857.764 546.172 847.113 535.521 833.975 535.521C820.837 535.521 810.187 546.172 810.187 559.31C810.187 572.448 820.837 583.099 833.975 583.099Z" fill="#8B7852"/>
</svg>
